<mxfile host="65bd71144e">
    <diagram id="HIP3nbAZw_EuaXWnEj3U" name="Page-1">
        <mxGraphModel dx="1916" dy="578" grid="1" gridSize="10" guides="1" tooltips="1" connect="1" arrows="1" fold="1" page="1" pageScale="1" pageWidth="850" pageHeight="1100" math="0" shadow="0">
            <root>
                <mxCell id="0"/>
                <mxCell id="1" parent="0"/>
                <mxCell id="7" value="http://ics2o.mths.ca" style="swimlane;whiteSpace=wrap;html=1;" parent="1" vertex="1">
                    <mxGeometry x="-130" y="170" width="1140" height="722" as="geometry"/>
                </mxCell>
                <mxCell id="8" value="&lt;span style=&quot;color: rgb(33, 33, 33); font-family: Lato, sans-serif; text-align: left;&quot;&gt;&lt;font style=&quot;font-size: 20px;&quot;&gt;&lt;b&gt;volume of a sphere&lt;/b&gt;&lt;/font&gt;&lt;/span&gt;" style="rounded=0;whiteSpace=wrap;html=1;" vertex="1" parent="7">
                    <mxGeometry x="170" y="50" width="350" height="60" as="geometry"/>
                </mxCell>
                <mxCell id="9" value="&lt;font style=&quot;font-size: 17px;&quot;&gt;V = 4/3 π r³&lt;/font&gt;" style="text;html=1;align=center;verticalAlign=middle;resizable=0;points=[];autosize=1;strokeColor=none;fillColor=none;" vertex="1" parent="7">
                    <mxGeometry x="170" y="170" width="110" height="30" as="geometry"/>
                </mxCell>
                <mxCell id="10" value="&lt;font style=&quot;font-size: 20px;&quot;&gt;&lt;b&gt;Formula&lt;/b&gt;&lt;/font&gt;" style="text;html=1;align=center;verticalAlign=middle;resizable=0;points=[];autosize=1;strokeColor=none;fillColor=none;" vertex="1" parent="7">
                    <mxGeometry x="170" y="130" width="100" height="40" as="geometry"/>
                </mxCell>
                <mxCell id="11" value="" style="shape=image;verticalLabelPosition=bottom;labelBackgroundColor=default;verticalAlign=top;aspect=fixed;imageAspect=0;image=data:image/webp,UklGRrjyAABXRUJQVlA4TKvyAAAvr8SnAM04bNs2kGAnOSBQ9184be/+J4jo/wToj72MbZaxsTHB8sQ3e2ycwMbHC3kBJhfSbqFlDPhCAv1hqLq7lTn4KqI3XZkf5CEyT5W+WGvjnSPTPtQVb55Md9fOQoCQBNxISu2rhgOxAHSwpezKrO6SPPbWPPWTXa1RVd9JququbklXezZyPaljla2PR83u+kXmXWxACMAnZd7EIcQ2LnQThx+WpPiAefXjjRtJtlWlY3z/SyO69XF3yZ/gxHAbSXIkBY6zH9QT+TH+W7ImjPhMZP18pYXbxpEcqfDWWh/DRTL5R7EQd+ZrZT0a/Z8A/L068gZ2ACHEy6zoREbAyhMUQ4EWVIgnlB1oo0HnXjhECuHESoUHCgClpEUbGl3QOAoiYzAAMKBT233udEPJ3dBGI7pg/n4OGcuYqdtc5i5LDwELAIoCAP70qu5zv88d5caIZThEJxASHkIILD2WHlsfAPAAAAyGThkUlDk1hjyETkAMWxIhcBcUDR6gujFiGSE6QKRz/6XH0m0Pnu0wHDjQNQSNjGXMVOYy9xDiKBbPggMHOgAibwVPtxpVVnKtqnSqWlVT1ao6zyqsiAoHVqlqVd3nalW1qtRWAZTgC17qALCKGPsBXuFxUzM1U9unmVoh9QIvFQ/ESHLjRrsAFk/+IVOEeRdBREwAYP/Wr+Z3c8eXPzT7Mjdzewf/0czNPWwrSQHY30p5SnHitZR9ZurkfhGl/p4UnoslFUmRTC1/S1VVZXc3hO1snCxVV1VNFXNm5jYLkESqqrvJYkTEYgkmScPRbZw7fiRL6m4yZsgIvI00VNWcZojX6oZZJoAE4jnY2/ieb5tFaBv6Hjy4AojbY0hixVMggDjtBBB2BwBbhwfq/4/LkbatU0hVylVJCh2zbQZt21bajqbN2Gp32rYZ+0oH7Y7tVMqplLlW7/M8N2rXrv+ZyVrzGdV1jT3pjG3P7GsNqi/btn11DeuybYx52fbYtqqv1TWXr2Rsm35sbVv2sLatfj/vZ0ZJZuYBIWM0spGNCjl2CUYlRjhiHuP3YGbMeciM+t/bb23bqm3btpVSLgMWk8RgxgrLkKUvS9ac+jJkLQ015iUvAxg3M+9eSw5YkGw7ifoaFgx1sbIg4T3YD8yytq1yZEcpFTNzVXNxH7vJzMzMzMzMzMzMcJiZmRmaGYurpDoF3UXKiNJOKfcWWbPnJjL+SMMfHrGM8h+xB30FZvszz0lmfxdhhs847FnFNtwBj34z0yxn5xL47AkF2tqON9b3/f8fq25Ut3GmmqAY27Zt27Zt2566d01tK7XtJjfOT8m2bVV7sta+L558uEPN3aHmUqYl1B2+dIAOuTtxd/d8v/+xd09AYtvIkTSP1N0ze3HzElWFeUHJtu3ZkoJMKzXFkP/H81zXw3DPq1DLLoldef4AbEeRPwDTUYQAKGJABQNp24ay7Z+AkANJkiJJKdw9Q2zGMWXbSBqY/X/vJpYkottg4RZmYXpnCpkCO72yYnOX6b1s77039d57773v9ALTC0zvhemN29jssmGZDdP7rfn/vt/v7/f3bs72z1XQcRhbREGJbJGAorG5IiICG/mkoGOND6PQgo/IVNmaBGRxTOIjIjge+VAVjZ0oEslgRwhidCJiRkFxLrGCSIJsESaKYjNJFDTjoByIL4qw5yojUmwUkWTlCCciaMG2EzaSLjPOuntmSkYSBiGwez+xUftvWpIkphmZZVfaU6nIstoY27bnk23b9kfbVtlV6UpGZIV5b8TFWjdO3IxoROzct/CO7TnrzB2c1nhOu/eaM7b2mtu2e48nhmdsW3fsmXaMzW88Y1vZ2XZ3+dOIsrZthyTp+SJqbNu2bVurOYQ5nllq6SNoltHuLrsqs5xZmYFkZAb+l862bcck6brf9/uq6lN12c2xbdtGOmvbtncjG9H+ho0YO9U/2GhqPDXfE7Jo23aVZq1XaBeOmoqXHV/GST64wf+vanIkh4oZNeImNXMPM/PsrpmZ6Z3D7/DlMjMzNdrDzUwabu4WNKk1wlKJWoUZUXkzpcrprHqq0vDdit0ys09cn4X/MlfESHHnb/97VmvGE3GH0iEz5eKzvH/z8g6+cs8xwzIeM8NglKGPmTSwnMsMg2WUwWKtbWsjSe/7k/5fYEnGwh6o6WFmZmZIYULYzWPD2CwgAuZtZi502aL/s/f/nyFJ0icys7Kq3eOZxtq7Z9u27fvLd8/Az8L2WmPb03Z1VZeVVemMyIyABdlW2+aChSgPvzRGwvJxU374Ntvu2rblaq0jqLXWWmvS1MrTWotUCMYkXYajE5AH2KOtAutg71Xum8RAxyDv/SMob+ADWgwNaFYDKoDpdewrZwRERTAiKPcLg9YXRvMqhOV1B25s26qbs6+YmZlZmUYZZ4rl/hO7ATdwYEe2bdqac8dxrRiMzHwzse/NgM+235dtv7dnwGIAtW6TTnnYxgFPtTBmp9kSP7ro/zdt23LO2jbOqXNv2bYrtm07T7Zt27Zt207Zde17z8bZOltrtbZnn/Pss9veZ63Hb2ynZ+Qf/GPPl9F2G639U82u2uXqLbvMtxndln9sFnqeevjm5KbHyZONHtuasW2NAqVr2w5J0vt+iC8iUmWrjbFtz6yMVa/GWNmenVb6BbNt27Ztq1wRkZnx4f0otpEkSZLMPLt39z59TukT4CTbrystZLG2VbUW3Isijy48yQ5anLEt/tCRtn+RrVx3vzfD3d3d3d3diYjc3Und3d3didxdIofrLnPlnKk6VdO/6Zu9ERlhB3/kh6U3w35rwKGLLVA1OyBnJaTsoxdwN4D+sS1A/aoct20jSLIyW+7e/a6SLfc2dty2kSRZ8sxEtfPb2HeDuhyO2LZxpL3e79XvCNjIC/v8/4vbSLJYsgV2EoeZORnmmWOGp/cP3D+3zBwYDgxPGIadSWyPLdmWhZaqpn/dUqsdXVcevWuZWZX1go7ZV4Wq62OmWV4v8x5TKlVaZho4Ph0zX8rLzEw6ZljOMTOTDizd1nZsknTfD19/ioi0nW3bIwztHtp296h+QNt2j2zbtjsZ8ek1nveRxTaSBEmSjF77gp1g/9vVo9gp9hNBC5JtuW3TV4AME2RdLwG3h0s+8MUf8WCUq7iE/9r/tP9p/9P+p/1P+5/2P+1/2v/8n5a8c+u3b/Nft31X7uo3v0seXJzTf85pqfPe17zq9c1L311bmvJBEMUea2MVOOPilpr+uZte8+fe8Pe+8Eda0nz4T/6lHxaJ0wX10QDbYx6MpFD1m26ffaff+UodN/7+9b7LkeUD/6bJ9f/o24Af/Ot3u8afD7WM6f3w5WKJLtoYe8EKIyX85Vu0fUXWS0+7w+/5kJB/8RfqMedpAx1WfuRf3eRXbKr25/7LH2nzgpYvzTfqrSPTk6wxMsKn/kAAAOD+G79fROCXAUDWab0cVQrW/1UnM13sDf5Yy5aPPETndya8FUZCeNJvIET4W0+R0BkAgLfczDGl5y+45+v4+9Kf/WstWf7Ec0CQcferR0Ze52quOT0KRsbAAl/yFEZGcJ5aCaKcFxDwSCu1ZQ4pL+mzmUiawf+6pUqArORvbxVNydM7rSBgpISRWfQoaGMBC62EHdM/llItbDp+Xe+WKVv8R4rviib/1v+s+C/gDYwUvQT/Oqy0c5zwbfOO+p8z8duMkPLw94Gg07Rzs4m8gtPRki5R7/8O/E+QUs3w8oUshQq3i8Dkv9nZEhhM9fyh/5SWllpdnRIVlQoAwQ4PWBqvz58qJYdgm/zu86p2gVIeMUBG6ZYJmcnf2tJhDZIf6bn+fz9ZHO3t2uMCU/4ey4sV9hfG3JY8a+dB79FqPzYf+APhJhuGtRhy/+9eN/MPu5mW+8nDD82VXeWkfz9ATlwEii0qfB9/UQ9WkoQX/r74f6j/L7QFxS9vDMR/6mC1wdhewJeuHLcSgGvNsBOeVa/18+9zG7muY2ICopo7P2BH69/j2a+tdZZu1fs/hCIyebQQK42ZwUNf/9Dvmw2/ZMDiy8zLkhBvV5nrcvB/WQmkrQeWpJcNO2idmhv8wl97v++5wide3PHH/93WANDhRTrJO5/q7vUhptdJJOMz79vrn/xTATGzVtz5l97ydBmpO6WvHn+/t8kYmJHrrFnjaolrZ5cBAGprE+sbrWaUpCcM16/f7S8SLsD7NeN0+ZlKkt8BAPgrGypiPCvA57L+IavbB3IAALgId/2bsqHt6W08FRXB6/xBrtcRuGz2Dbv0Na+Sy271vW3qwvHFQ68XbNd/Sr9HNLViUL2G8PrdFM1MmEF7/PZ39cKLgM9ogzVxMxEOllJmWJaMeLvJLGAtZyXD2U4rv4jj8EVVwNM7hgAgtKh/kYxCNaFn2AtHafSIlr4fAPDkLGqqYQ83gASe541umwugV7WEvYdOy0XpoFt/VsJO0wgR/H4AqASA/f9BnjEOP+vaD+qlXb/thb+Bcp8uTwUZ4e4OAIBaTblDWM4W9FLadTixSKCBiX/6tZVAaMa5ezH9kz2vGof5n2BV0kdfJY+j2tkZ2Tv/mV9ywMD9HxUAYE69J8QZwRUfQ5GlbwZv/S+FHH7vg9M1oGA5ZWZlyYgHxD1oh599voOEZtzfCysPZzoZO3G3u0m3zRAp/kRidu11EBN3uVuRYDnASDCRpd+GM6ze8SwBX/ht46y18WCngE5kPVDdqH/76BMNUf9bcxID+vXrvQokq0SutuWHLNScmazJFvNJVBHnqvVdqBstAIDAp0bsylF9MDFxcEqA5MonWnRgXCWVbwZb+p5yVJ9XAjCm3tV3hpES2UYPw93dKVhSmVFZMuLls1vD/f7O/99gfMAhYlUWA+f5D+NlX5mUKMnPoIw4Vc6j4ojxBUGuhWUcj/iCapsFPBf2g1JmbGYu8jEEZshf/PeN1O8OAZU+X43MXMuDD/WYuryHt88RI7X7KMyMHJRye3UIwzeKTKPptdZn6n1/mpGncz3VOvQV3Oy2TjCtki0SRGJN6j0lH8bUO+UqM1wTWhju7o7BksqMypIQL59xTQ4EgD32DzlArDKXvQ8yo9I3W1mXJM1JNLGXt33EQ6xxknvH8pA32Fw5Z0ClnpWAbbw/RVkfz2mkdQt4u5QHmGFeOtJI/Q7YDSpLDwIAeG5zKoyU3Rg/KVQoVshkmUPS5QVX++xju84A4N5rKTOpDGkIapgFd61pldQL5Qrs/PAfNqbey6aaJ4k3A13v7h8vind81hW13A0wWFKZUVkS4uVzZkcAAGb+M0fo42y23aTpASvrUNQ+FFYOajXkXx561GO+4rF05d2todHe5shZQgWZCDwW3sgRpPLQOnKEjiZbGwHbkJkK6dU+ADU1N1ux3m2N8PfzXDP1G0dKCgNFow/zZIURapqdVqt6WCbu8LGEIy8DgJ33oXP0xOkxSvDeaVol6RS9Lkze+7csU6uomzH1bgIzFJPM0DMDZHeDx/8SsAQeeNsoTNYAgyWVGZUFFC/xsHfajzheJNFUAXwPe39YuWW/AQCACSMTASDhfmM53EbMP4nARxBr4dUcGZDfg0emAhAP3pDmIzh3hxLElQfyYqFZQnwv1qzfFRSjDcMFqQcpPKzCQuPu/F4vFI02AIDg+C5DAeCnIXXpIpLvtlJpWiWJBMErbpXUbe+3Pk+ZiPvHf9GYem1gjttvwAxknxD/7U3LYKYGKCypzKgsgngAAKBnD2Ic7XWA6MAxO0TSUXCIBgDGQe86aW0AiNvIK75rolJMeZwoLrS6hWSOEnIuiZ0kAoWPJ4ZqNo4oAYzMRob4rqZZv7GmZtX0Y03DlGYz/lFtAKw7EzpkKEo4YGw7AIWvldZ7UEKCaZWUJaoklAMAGr4xswAA8PFxxtRr/uSHmydyZqDf3f0mszUgYUllRmVJiJfOgeScjAPEiDKGnGdwcDMuqXtJ7opDn2aRvH7PfWg8FHliYmSWtJZsJmcJxVgG5zfo4QNPLYG5XC+BbzwZrDdMPENAnWJssnnzjtVvvJUWjYnJzPasYyVI1Y46ZdhkXCU3EpjfL35mnuUCjtdVrxhsM8IeMwBhSWVmZUHFiz37BGBswPFhFfbjCZJITKxXZTh7KwMArF/yLQDg7JZrGh9FPUt+jDwGsbI3k/2Uokc0dYnG9rUQ+HrDlXYdKiD8BlDwmQJACB/+2nEugK5uYRfEI5Eh37hKFhAQKR+37QoA2LsywqgXQDITgLPLDEBYTplZWcjEXyUw7g0O0MddOQbRic7sZ9SThfMBH/2yVaqZFgQbSXhNUE6QaZW6juFd9EZgzKQ2RMicatxEMxh8XSOTCAIuO8OVK+o150hzZUEY1xgASdToxyM+CSsnxlWSKegiAfcutVz6PhFFvQAQyWCXGYCwnDLDsoTFyyZQCHJI7AAxnSOlKYEzR0FkTkyjcPpIq7VJiRVTKaMCALCgkdw4cVothfOxmnwXRSrMEOMLUf0K+yW+qNlGeSBXs2lP1yMoTVo7CwBOoeJjYr5FyTEwrpI1ZXHq0wEAV0YU9QJAsCBGYyhvuLs7CMspMytLOMfZDMtysLgzu+lKR8HcWYYkVQYhei1W/EUAgElbCNuXbxfTCKLbdTjPktsEBUmXJOZIclIiRTPpJxgkBPYZIsYXuvV7HYD4WM8oE2ex6UR6hGson0wZt0KlzUgA+xBVWiHGL6r6YBD6KkmXtX63XWFZVxljSr2mEus1UlEMeHfHYEllpmUBxEu+7xKAsQ4QsXeUM0ONUBAJj+IbLL7uZ5YNAfAZMRNhT71A1HNnQh5fCxFwU6HlEJzmmCbGF7r1e4B9f3B4NDf81zwtI6+p4x2I0w0B5LbROcgn9gGUGcApy7N0WaIWoY0jgHqZmJNYbAPe3TFYUpk9WW7AHE0T1cYB+vVRdk2vYF+Rn8fPZgNI5/Jt5jO73gAImeiG1wtJBwCnxs0UWHkGtYuFNt8C04B8hfNqpYbJ3pMhLtrc9lRl5O6CTEC7QhencZXUApDMEPQRrZzZH2rKaGwzAwyWVGZPlhfuO2/hsmSf63hxHJ/NXVYsme8Nso54D1vIF1JEZMrIb4zEjlY9zjeI0xAhvmto1+817Eusx29mV/36tEgkddCFvGgNPCZxiskVMgQA0NF+9ZJWqYMB7+4YLKnMqCxWDgTgYH2jQ574sEQJO/gFLSiSwXEna6CNmpsOGCaWTWRupMekXAU1P2foeQyyyIbLEArfSBsBm+r92z06rE1xy0asOL3NoKcSONbYYLlcvUa8NPaZAQVLKrMnyzOXSYCj9Y1o7hs/4FM5X9msQJTZN1GQFsDeOv0myCGdhSUIQMPrnZuyEY5uG4hxExSZweEbad8JcNxIhu9+oKHgUhe+Q5UgwhWWNGMeuUrg1FlMxCVXr37HPjOgYEll9mR54rKQI+ttDtCvO3EW01GlkO7FA/DqbNeVOZRuWQEUmSBKmMkXRyF3vwusbLVcYfG1AQBxWvjNgPIt8R3gHG6Sfl6imSz8FbzTekV/JFqktRLjKqkUUlkOABVy9RoJ0NhnBhQsqcyeLJ9YcqvAnjpcoKca+2xqZbIoejNRIDublOQ3gswVAmktqNGbUkNrJRc9AABA8dTiiILDd4WdB9QeAqYUl8jJk8bFt2ZiVTXiPktQ+ZeMEyu8AZxtEXh2BCD48MxtnxlQsKQyo7JId14W4MelDhB3YJclcAprl6wSJ1zOTw9W+wrvy7pwJlbtJKafNHpMW+zGbKawgdKM+EI6wAwOX39svo0HHM1uJTy7kZgiKW+wCCIiTFMjPBjt3ZYm8MG+texXb/QDLxTZZwYULKvMtCyEePkHi5s7QFRcT3h4MfsdVGvdqjpQCzn4eEOeCaJbQEpe0AKdHtMgy5VtqtAfleKGKmB4wkzii7woOwnwD+8pcBloTOrI9ulwpu0IiwkqGFdJnsxCPmvtis6Vq9dO2D4zoGBZZaZlCYqH/gzwRp8D9GuucN56kvI3qf2VtFjPxZEmRb5KzRYOLycApKdhg1uJjDGGxBd5dp4Ar/wsv4xPSqoVtveQkcPwATEe5cS4StaCJHq+6UYBS+1MiAjqjZWlyD4zoGBZZdZkmVMJdLLwYDIBo8oBog13CAAAyl/NrghuDi2CK2ygmSzAGyUiLpfluXHkBFLZOmgkpoQgwQgSX6wGOw/AM90crmsKyRGG/E/hYt9xukQbV8k1JDGg42NSAQDjSyKAeoO3VpF9ZkDBssrMyGKm47YAMPtj9KnDRf5u1g6yjxUqBnpLGzJtIEVGioV0howAi+8CwD2ISCxQqdUh1wgSXzhtBq34ruhQbRUtoBrPfQEgsgOhakGDw/y7buMqyeYbh/qdDq0EAIz4soZ69dhnBhQsq8ykLE6sm+v3WTCCotAB4liITl+oWF6mbMmxC8I2qT4kyz+WEiolZdBkqiQDARg4h9prPSweCAYNI/FFvr1BIyB/C1aQtYZqEk2JtUeade2eKKTjEh0SjKvkGhSTAOR+ceI0JXL32FhWvXXyLTaaAQTLKrMmy4L6JcOUvVmaOFaH660QoZy3EU7O+6S337xvkeAvkpJDe5rugWJ960VcMB+dQe1a4QpKvbTI7IPyab6h+GFPGbeSFaQhUyQc9RkmkgP2AACMkT0Mw09BObxxlSRS/NUvPGXwwM/PUS7j4nUjgHrDt2yNjWYAwbLKjMtCigcA+Kyy910D/Sg/h+tjtNWQeIKAVoAkhRsklRvItY4hKWOlWYMhi+K+1gddBfauP0PlQgCxUtxmFwBbfPEee5PKAaBvqu6CRgColQy0QjtaPu+xRDZECouasVyTKtn8tk/tt/hzhNiDz4oY6g3eWiX2mQEFyyozLQsqHgD4ulja+Z70bp0xWY4QkkOM0k2YKyRNoHCLJDcU3dbCYuqF5IsiDWUUBcrj7z41M1WlNwCv9OSHzfa5LL5OqoKjYVd5i49j7p0F9Zcv6frsNdVSR1+DjKCI9xhXiTcsD1rYqN78k2019pkBBcsqMy0LKh4AvKwcACYXIZKqO4x2gOjNEQAwAHqHFOns0TIRRfLmSIdwCUMxRfpGYav1TiFWz2QTJpqrQ40JLL61iADgfFaOU4tY4iQj0j3ORQuuIKNs48QElH/IvErqpLRGxFBv8J9aYp8ZULCsMmuyLKA7FxBbC/d2rE4bXIxb9gXQw4p3qJBmVngnnWj0thYvdMlyACgDw2yS+JNZ8SdbBJUSMrd19xhjWHxL6b2ubCmyCqt4uBVZY9wx4AIQ6PVV6wiqHyh+RNxahJSql6sETwa01GvfKbHPDCBYWplJWZQ7T7FwMoDbOlaHxMaC09dZuZVfOMhYyZPD7vIZMnBbW0OIS0XqPomYwLK7RW4pCQSZJrD4VkYMAuxk/S4VGjTPOBbo283qX30eVUSSR1EgIta8SuI5M1HFqELEUG+wljX2mQEESyuzJssLc2erQmJjlsaOFdiAYTS1PqENhEnTTaXMMxpBqaPaFY+HGsyJ8FBMxFHpDG3OAoAK6ZdDRtH4hun9pm0s7lSuoi/RyTVo3ya4cGOndT5tUI1YPRU0Phkh06y4LOUHwlZyZ9io3vyDwRL7zACCpZWZloV+EeLhVvuJBTDQwaI/v3KxtofgeVc1eqQAABJFBGAtWpGLIHtxGnlFnmzUTGD4POkdtQIXMwrNt1yQz20X/uCJDO8RPhXhHhfngSYgJqTb+twC/EsGZTUb7qlYou6kFwHUG6dSaZ8ZQLC0MtOyoOIRnZFj2b5paV9H6OBiae0WEOvXeoWVk1k/CZvgOjLR6gAgLOcAPzCLcaIHWihjZtlF17PCADTfqC22li1n0Lj6iWD9cKf2YTB8SHySZiXBvErcKussjgwDRGrStHId9dofxybXPjOAYGll1mT5ZfIyaurfWwGivM4BIrM7y9MVa2oMyKK4tcLNJ9ODokk6twlC5LWJCBBMBDBiQ5Kh0WQTFdIY47jSoV88vnay9Zc2mkA9gbQwn5bp4Jtps/6RkwFTjFOeiGVeJZUqsVys4vwrI4B6w28aMcw+M4BgaWWmZWHFQ0IPa2wa4E57OEKnoxjPSsEFVkZHk6xO4a6X5QJEQhTcDMkpli3viBVFRss5Kx1PMhWgbDSgQVmRATS+IRv/SFZB5MHP7ExN8DMvfTa7PU0qSV1GimviTU/g9nbkeyBeESHzKgkRV6GQpz5pS0e99p1TWjdsu/lnqzrO8Pd88OVoDShYWplhWWDxUGgRyXVLAEA2eXC4wFveOET0uPZinTDmhwpZVceZICCyKZSIWpxSbvL73uTW6UpKp1NKEeVq+tB8g0+W1JvmwdmpzKayKYNoqfYNi3nydCM9pBoRTvMqSQBAD/M836vQujyCqBeCjdlTid7VoF3OQWtAwdLKrMlyjiQDALDAqq6RDhZJfpqqz0FEO9JePezyq3I2/+btJhgio1IUMc/hAhSuHQgGHsFcmwa5AZc2NN/gkyVbmv6a62i04H4PISL4MSQnpUlXn2Rq/EatmK0UzKukHAATRi9VBXqBjnr5+AJigS75JmtAwRLKbMuCZDm9ciWZ4m0JDhAFzF6Bux4i4wCdWeIL2Pzm9xrR9NsIwqydBzlSwHUcLifCM4tKaPyAOHYR97EmOeUJOfX9j5Wj8UUaxQtbNyS1KjyuWeXc/W9jgs0iYaGBeNyxe2eScNu1helOjWEGD92BOQ4AAJd5laQRo1oVVQubRgD1Eh+pq3wdsgYULK3MsCyweFhI8xmy3a2Co7V5/CaVVoLdWyC6wVamMYTOYV9ZpDkMpOkFOsqC5dWat8gaqwucoNDwMNC4aDjTvQLWcq9NxKEdmm/wjo8YRdV1upkBWl+qQD2HJZmOc/c6mKKvmcVGPp/YGd3KNIR5laTx1xrZR8V+9TLPvG9A1oCCpZUZloUVD++qIv8kOsDBOh0gFCaa5pqQv0/mY5tZwp0dzPJO4cqucSLG8V51L8XAz+Fmo/xSmA5rq/WlaHxRLnSAfmeYeOrh8QAAfJR8btRgkvkQUq5BqfThCVGfUNfomFdJgqBFUIfMm1fbr17imbSGZcgaYLCsMjOyWPmsmz4MILunr3WEGG3i7ajiIX931XOs8VHhA9GjGaRpBywFcuIUHwpa+Kmp0D2UGPRLnG/+4VZrGGDGWCu7HU7R9dUU4Xqi1pxJZqglOb3JQWv+0IyoNE92VKdmqruaV4lPMOLa06WMmJ9nv3rT79TXfdRZ994na4DBssoMy8KKh0kAgLIFaoPuYB26y2hgSCTZgoB6WbPFwsTuPDHBGtlgLgYAErWJXQoAD7yCTa3xm6CouxScbz7rmeADSsR46IEUlT9FT7JPJi7XaaYBKidxP3O8QK588ypxgW9hr91BDfrZqt7cZ3eO//LoYEJ8cbt4w2bAwbLKzMoSFS/7MwNcCikO1iG9nYg5DPMg3mujqxsAoi8VEg9xqRDu0yIiX+AF7ftNftjOFwcJwuIvC5gQK4Xmm3+7sfsuMkGbJEVI2vWv2lK2UXC53nI4g3v0VZtXSbSk7/UAFQPqlbJm4Tx7zICDZZWZlQUWL7CQ0do2VM4ycrIctNPRkQzX6C3ejH+mNfCQSTYVfhMMpfozRLS3PlXw8q/ADws2H6nbftKjfnUR7x1pOoeDLgkm+FbxrtMOUjy+8NB45wRDyQPveodomODkXUWvq/Xcc2UzYAe4AkY2GQhp8/0GVBKPl0B9tYiqZraqN/Mw9rx5NpkBCEsqMysLLN5x1QCAseMXfn+rmZc0nj0N5IeD9gdPYuU4kaILrfDlAIBdQOEqg4HkRXLuLo57pnV3OcmgC0+1Rqdh3pN1d9zE+YbzMxOMLgVqGK6uXSOHcQlzZD9LRUlBtRFKhN2mANF8xphXSVCyYUvGMnURQMRQLwAUxZLjuQybzICEJZUZlYUW74VKBexxp6Fzd/y7VQGQdHSEuLOEB7KMoYYXSc34++vsUqnX1sm5KQ29WqOCPQQMEJYSVpnuhyY033CanGpYzYeqmxDQm8oWB2SLjmvM/EPxDBX3yss8YEGX4kDRE3ZwAwA8NqokHoIx3QX2q3fqocgccihtkxmQsKQyo7LQ4h2ot9WtI0RcRYjlhj1Z6h5MhnVuy8K1EuFKA29ZMUK0X6UlaXMA/2nsFpzqtiLpBK0F0+VPH2i42zePVBMMl28uVaq/iiS5GWTp5ORmOabYfTuPInL2Eeu+wSqxeZWkqqRLevqJAal6bQEw8BiyCZ0JEQYt5s3AbGVJZbbJWcYv9B1vM0cP9H+egZ9HaQrF5j25RyFFTxETlrNMsiFA3wwR76co0MSdykKYuMc4P3Rrw92+8bDvOa1pyYqgPbpTFRWspOY2jS/mLnMFKJnbugS9paBxlYTSRHU7WQkyRQ0Tqtd2XHIz6E/w8b00zSDk06wsqcwmnCWbsJQ3Etl8eetMnV1S4g8d/RYHi+0uMRD532AIFcE4lntt4IdoREbkHOB38z+5n1f2EJV8E1PSsQAAzGHx2fgIinca7vatoxMVTJfdz1Hc+IVFRJrAMsj4gJlovr/sXQSfdoEiRsG4Sqohwq8up3yCUL22oxF2nNyJuHeXsGZguLIqlPkAP+TOgov3FKVSrrgkWc32mutgkXPNDxt4p4qPUanTtx1pJdUy/+s/jyMAA4dw5hz+5VC6yn5ygvcSBIvEpJOWK0uy9punNW6kx+2rQY1xXqkmJF10OvH+6Z8gGLBE6NTjoFEqqBfg6y3SW55xlcRRG0eJQqlHC9VrO6tpmEED0XVsypqB4cqqUOZwJuTOgou3KwAg81GjKFPzErWRu1W2CC33G8TRScL0NOJm3lkZARwPAFgK2PBuitkZxBx/jiVrZt8DAWDkOi2QtRIJoWgp8Yo7yXHBfPl6g92+q7sCNj4H//bDFEfa+F6SUMA3yEYnZIjZ0peVdCp6G2lcJW6CLJKPKu3a2fOm269eSfO9QEO6k4hts9p/nr5jLzVeWRXKfE2InQUX750HWjhiFAhckzel/qmDRIiLH9YC3eevfZHQevuz5lts72gAqBusQbUG3ck55XIAx+1EvvW0MMSRkq15Cx4rJ2QDXXEifthQ/fpXi1M51jxf2QUAALh+V68gAFx5OVROpt0zSJ3mmGlxvAWQhPMyjaskINz92KM26ds9SqRe2/HpmMEtnaqcra1mcCerGRivLKfMxpwFF+9ZlQCAMbQsX59FvlaECFG/FheqHipixM8SXf6Hn/YZYOVSAMBV0KC3DD7msU9nYNjiOAZRNCYFmrfgjlktEA02LoAN5aunGapf1CXZ+BJDH/5MU2II8pX1gd49Cb0nT80mKciiqrJe4y97pFOUajuebFwlldKnd+2pjumSsiOGelEDwEg7ex4RARn54hZm0GBZRnWVDZXllFnbWfLprfW3j11GU+4KOFZgo2cy7AjZB5G8GhXK7V+4NwDgM4t1egXLF9/MHWhxxCpF+cdhzAleYty74ynED9h92IlnfOK9wveQR7wJCqQveR9HTC42nu7z3HDoOsuC+WcPae5sdVcTpEyKNVO/WBV29mrO7AbqKTsNrx6UAIWS5zGRrwqA+ri2HD818hERXNO4ShKk5CrtdGXb7SOGehEEzDwh0L3nxsRI8JL+hcO35czAYGWJZaacBUJn4cUrBABwI6m1j13uYHHVZTTFJwm9ceZ8oqv/NdWEFoFnZJT4B1X4yVYLiaHH8fsTkddjqCSf9Vgy/W79927ppPRpnizf2qXK6iCe9Bw3ANeBS2CgHDJtqpH6RdDe54g9ZB+hOJlduQWjA7rKvFqnJ+EGwEeIIs2rxEfQlyZP3dj4eAPXUHXuEhN4YOoFrfI3IJsOiRmYq6wKZT5+TxhxlvEKXcd7s3XkCabc4zKVrbKEiOf1p+klnWhbdVdB+zmqQMBNjwPE+S4LiQXwNReXD+LF6rc9WLxd2uinggZvJezypwvcyNp6B94IE8Q+tu3GOvUrah0L7KD2Dm1kWzZGzwNDH5j5n1nxwyIJAHxYwbxKakQrKAFADUBnrSzWv4aqVqYPs/UE3GZ3I2ZQ8379yipQ5pqL7wsTzjIuoOl4lZac3IZOHPcCHKyP+cspOuwvFi7zGzOvxnDvEyFgzCPklJA3e/8hfd7A4Dpyluj/A4U6+5TCbw7G32EPBWAkbuw39BN8ZR6fv8Pb9esXQfvy6gEAxw15p4BZh3nA8QCPz8hP8xSQUgkAwGTzKqECdz8kfQT5VgauYTQMHyIrdEV8hAkzyE7Sr6wCZYb/kO4w4SxfD9Z0vPDE8wHPmfzisLkXEu28GFH2QCpQ+iWXhnhjjtt3o29Rw0Rddu8CCXv6Hysl3N5LR8nLfMtp9p4FCVNmHt38gOJ3BeZsBDmX7gYAh53I0aGzlNPmw1AZc9Hz9tlMo365/pJ/zhzYUn5o6aYcNWdeDrDMO3Q7vckXQSC/BADY9i7GvEoS06WSras2oPkGrgFGWEbgPVdfxub76JtBYmWqdmUVKDNQV3YbGHCW64foOt6sK4CLLhR0CSaobI0Y+erYJM/Kwi0B/yXTtcSr2P3pUQOyslIbfXie3MzO2Pebbw7nfndmYmJm4ntWL/2JkpZf0anTZ+YvY8S73ss+1XrqFgErnl4/KW2voF9c+8ajZO8dwPG5L0yNc7lc/p84As4P1CYE164JxN/w3tUwVip8vmO16/frUxKcwSnd3GvNhl1l38HkDsrhXfrJ9oD53L3URW7JkzVIJ/gMzcQhLwNwbLUNKhl8y0RXC/y7gymqK6+qfw0ww6gLqwDv+M+HEjJdRsRM3VwxA3EvevDTs8YFAPinhGFpZWad5fhLl03K4oh3cOfXjjkWPCdknHZxHACsuBSRMnVGzgh9t0/vmZycrrXyw3UqAs4iE6ZftBTIvXBGVlRuccOQEthXWq3MyOomiLV+DSZKgt++R815f43XBVtL0/GbKJ2V2fvPknbbght/tbzdXTuc/5a8UUUaTKe8jTGApzw2tsf0K1w2qGT467b5UFTPYW/M/yLHx5/wzbaXfXxR4w4RRL0Vo5sGV/Mi4pThRyXHpzavXXUBgrD+z4QyS53llOOmZJHE80vDPOvt7Bt7foF36IIwAq7LnK7jGxABive/3f/Xm3mIAGXbTXqcnJfXvXuHsMbFHQYAA3QnObsdCQAYsj3Xh1txKuwr4cybzl83CI5vecCJhw7fazAiTmmHiFbCBRVlgLSy1hDKbK+zuOxp7DxN8D/Ny3bPfWZap7m3WhP/21RxjeqF/+2q/D//af9zCf+1//l//tP+p/1P+5/2P39WYLr1crBN+DVXCVeRz/mcf/Fq4eXg/76O3Ph//9+7hD3k5qNHb755jPwV4+Rv/yt+9lLFCvJ3Lif/zr/za9eQtcInf/L/vJZsEnL9RX8GHm0HH0h9sYjP/oc++2Lq9td80sx6uw7UfJLwGScLn3ES+fbf7c9Ao0vAP/8S6v/un//vXkr9iR/U3v9Vpwu/8q/8lWcIf+UP/jO26C84j/rTzwN/6yf8PTfAn2U2WZ0EK1y0wsYrXLzcJSts9BuXmWSJTZdqtcTKJTpdYtQSk44qPar46WNajzIb1UxEsYfm/7sXxoQwEY3d0dw1WLui/a/uGnK7e3PnkNvR53e09o7evq7L7+jsHW3+2qaws7dvyLPO/q13FL7Tbx0rjoUy1F9M/XwRz6P+8R/aX48vS3W0zrfWJa11ofmbf/Nq57xqddJb5fpLtBqBmKAAkxHoCYgRihFhhMgEEXIJJq0YEgWQKE7No9DZ9gzmtU3h2maoXtMOX70avmo1evXp8E+9aj2yu7eu7xUGTBQT4SMnGNuIQji2CL/mWeAZ1M8Ez6aefq9ztettCtWNaWVTWt2UVjaG6sZQW2k9InFEhBAZoXCZHBkBy1TXkqkZqkubK7mI11HR2VCvuRUM8Xpda28/Hdt+PHbF6fj2k7HtJ6Pbl2MvXxem3zOdIqbBdDEVRsGxPfj09yH/yjPAywjThLVJe2u2fVJW/N5bs+LWrLTcejJCnUeFXGLojnej4HhWnxwRJyg05iKh4jUX9eo1TC7UEJ+MrhkkCpai0PDDqDva3OXHk9sOxy8/nrj8aGLb0XhTEpPGLcR0eNtZ4o7H1vit5wvI+4D3Je8LptnzHIXenJZPyddPLtZPKVY/erVxfYRMQBzvStulKG3iuByPoY8yItoEDLHeyBUy9Vhz1zRKKzTKyqQzNWOjok0iQmNzTzMG0pIWKuPq71VG1cq4Utsu2+mOP2em+IrxQh3b4hn9p5Gng6eTbYApYa1zTy8XziiWTi8XT81Xl+koSu4z0OEAI9DgeJeid8G0ZExa8SoxCEZ1AcNQy4Xci4v1WSI1GORKKLm6OjUDvotPWx5URpWKoF4RNtYE1eYkSnMkl2WiDOaJTeBYE/NO34c8ETwNnE+mbs69Rt64Q7l1ZlU+oyiv924XQTr6iPi+Ks3EJHuJKr040huOSEQw8ijxCtm07KVQic2GYo3roB4TohhCDLWxkJL7TLWzvibf52bdxiS6VkWtvvqwUdWo2FjdXsyDXWGWKIFjPbANPJk8AXynawgAjFKfllfuUG7dviyeWZZWmrhMQHBsgiTiCDTkrgQ5Dt5KHzlO7I57oc3TLPJiY04/U8SnMcsnMhVvmKkLBo1RMZcwxQ/DJevafXnCQCc92dEsLK81Vtcb5dXGqUkJAIaIb90NdhalcCwGftijyWPIKx0ANvnuWfX6L7hjtblSR/v2IKujPipi3yIO6UcgWo47BaFLcQjHIe0l0ufm1ltEDHFqmGJmalG9SiRMKIOGMyFWlxQlyuTVhWrHqks95mY7/PBprSOAa6yqNldWWisrzYZ2AgDqc/cSsxcvjJLgxeDH/bnPIQCwRKmzqrW7jlfvXK9u8j3EazBCKrl6ikAoE9TdPhtcW4mAQz7u2ufiGgXxascqTCYlI8UFU6Oxa+rCPmECmLi6FBrewYQSQbKukzSHSZjL+XaY7yOvAjeLS10nXXXQWL7fXlVpxgsPABOVP3pzboxi4CLycPBfP58AwHrn3G28fPd66Y715lIlBcyhoG0NHJPjyNCPk7LclGKKcjwR2+MppuJAoGawKcUWjEWvGetvaSWqWSgC1ugmxUZDMWjunTY70Wnr8G2f0MbHN1eOFW51pbFsv7N8r93cLQFA4TIP/s6jjDrwi+l/Bv5p4J+Afw3+IwD45bmbPz4o/v1t6O+u63+ks/orcrffDVvHK2MrY1fwMBwHKcpDxR7zeISPooLRk0k4CCdwimPPSefQNmWF6Xp/L4buyEWgfAfrToYKDfkdnIOgeuw3HY8ckr+D/cWV19+7Pf3z77l/+BP+S5/JHzge/8Ly2/ajUQC4P3g74bd+tz8DgI4+mbwz+ZX/CvwbAeBXFS7/9CDzDzeBv7Ho/N7azi9IvZY2LOkDpggfIVEu5lkSyEKQzjpH4enl7BLjLI1pZXpOeK89JGqgGUXPoext9tyFOLEimQvVOUj30idyDe3hzhqjyPSa+jm57982Oftzt+W/941dcTj6wquHXnT54LaDcQB+0T//RYQ3EMbB3L6+4Ni7kX8bgF+Wvf1Tg+w/Xnv+6nzwO2v7Py/1XvlKF5Ncj3wwJFzCI/UDKPBXhCYcjBN3H1PAeecs933QU6h4Vk4h3pECOoZidH8+awIT27LuFGFgwhi8Hb2gOFwH4w03p+JekPrZ2e9cffvxyPkXp867NH3V0TAAm8E7CF9EuD2Ys9cO8CjyYPJKAH5+6uWPdkt/fxX4W4vW//i56Y9FXG87NGPMeLFVa2+koBPVDNK06xzjRGjyEe49z8GpE01NtqYxV1OUItHAU96nkNA5KDmanrl0aE5ia06Eg2SHtzEGDQeJVCXUXMKl9yfOuzR1/qWp61Y2APcGv6vwlsJyMCd/O+RDybEG4W+c6p7j+deeXfmHq/Ifaqz/wszzK3eptH8AqTCSu19WRZTCHvT5lDz0fNU5Jr371TB1v1NcO8wnRZn3DCnHox4SFhBXcaeXoECaOo93PU+9E16loTpaRfJNr7oXyuOR9wzQ8cGinMyRKP0eMV52c++556ZfcnX/3mgArBfeCfwuwhlgjl03P4E8kDwdAHBqWnmd+aUHTK+tMiEfAlzST9/UuEvMZuCYJbJLeWTysLR018T7wB0PvmM2yplCTd4BCeRTkCdc4zuSOmtq3GtwR7UnXEx6Bg+WNJnCGwDWmL5PoXloAqO+Y8m3HMEEU680jsK/rrHPuzR17v+ntj0YB+Ajf3fhjYUxMHeua8DHfnPFhwAsU/EDptdff3Hu9HSnZlCOH8iIvOO7rtJH0StQKm3WrrrOEw5C+S5xaim2T56QfeoaJ+A6MJK9Mb3mgHpkS9rioCacaCRr6nhSfpL7OWFRRxd+kR+XkBqivHHnPZc0c8lU19yKgV3+YOz5/509/+KhPZ0J8I/+XpEvAj5sblwXkG8BPvZbAZwcqm84P/ea06srTDQBse/gqlbEpXCpTKe6y0OWlAUSYEpGjt+LDnNIU9PyHSDGopamX9T7OZGqJDTu8HIRnVXfEeauQwOKWPgaqkfR50CKJSfvxYuaQw3pmj9Oo88t1NxKyVgrdqzu7Kzzzk+94H8z2/dHAX7Ad/09wWnC3LeeB74BeRRxYIzpvce332R+6g7FJojVENNeZUiohMtplDmthyoP2BVH6IQ64cmpKVHp41mdp5Ajhg5yHu+PnNLYPUKHgYqQnlPEEzgpciLdYT57z9TQ1TUO/ThwB1mCPMYBUCWGKOJTGINRMLzil9yZfN6/7nrJ5f0TIoAf/hbCHyjcFcxt673INwBPIwArTfD6s/NvtDi90fUyNZSMJaM7ulHUT0q+PWjFpXARVPUIEpIF5aHjo6lkSl7OmA6UpqWaPogmZJxoIOdg6jl0qgi7yHQ9Gjm3aJgZerikuxq/L/wm3pRCs+Hbmpnq1VPJJRNTIxpXLwsv+PfsOf+b3tVYAK8r/IHgtYQ5a/njyNcjzwEAW33jTecnXnt2eblKvGZ1iVInGX/leoWQ4iOso5tSJOHiO8IKApimJgjgR6iJp8KTnBNRU7B8f56QHgjmrFd3t46TSXFshfksnqIQx4aGoR5DHcench1AAOX9lUB1aWsmSgleaeSO1V2def65Q9//3wa4O3gs8bnptd/wdUDjrolnZsW32jh87/r2KDW5MrnAEAP5TWKrMCqtQOoVWYtdXCewnlIcJlKRcb50I0A1r/2ABaWA8J5wzodODVlz/NSC7KrM8zwES8dhMUWlJlzj8NvbvUlmtvKPt4dGI5fmtGAVlz6DYYC5mksJeyFeemXfc/529+V3x4G/5GuDOegVfyz42uQFBOCu5eJbL14+q1xNFqbhYGVkggiRfkIVSL3lwCxZqHDVVwcegwn1rHEKOLS7TZ4QwZ1TTOpgnFPwqr0fNTHl4gXPpbuYdLsEh6WnYDDHecLDS4+0ySPcYe1HCd+L8E5DJzFZK1GIk43x6uqmLhfd3PXsv9990bXdwPPJf/j9fW5ZTyBfjZwDgPY+9a233Xz+jLScEQOTJgfLqpNMPYpVsi5qVx3S7Q0WoYR6yE2LM4aL4hyNs4MY1JQehU6kuEBjPseNjFOMoWXfk1Mlndic0iPOtBRsrjEODVuWpg4uOMYAWfLb25CZzNZgJRhRwIBcctvgeLHt/tiz/nIPwKu+luKJZA5Zn/VVyCuB9r71zbfbfO5oMiSmJhcrC1EQjBLK6CpIkeF6BJF7WLpVOJB1x/iM0UEPAGWkis8D9KzcmVOHyx18+yiBE92hqbfOc7o476eEoc6z0f6O8FbTpGJEPQxlMx3XWy4ZqkujhCheHSkNP1qxmO75UvG0R9oA3/7rk8+aI9bzyA/+T4D2ftWNt9t67rRQwcU0R0FasUwlQw2GViS0VRuhsCQX2SUykDZLWJMwNKg9BtNDQyDG3AVu9LRXpYqfGuKssaaOIWNpusjFaF4yFVONLA+BGXoTYwkdb3qDPQby29K6v6mK2oq59JYXbEo15s29U82txQ0T/54vF09/pAXwyh/8XeaAdRH4JuQ/AbhHOfdFtp48Ld0ZBc7k5FNWIyNRxS2ZtA2ze8q5OyW68vnA3bqDimmCgZTcKPYKbtJWckxRImJivn7s3e2l0slnugBPATd/9lzvPX4eQv5cgDvma19k+6mz8lVxSmjeEukVE8h10kD2HafqtDhY9ZNanx/crf2mOyVUC7ZgpWHsFbBGxxlrJbZQZePEu9sLpc0bA4A/9zv+PXO5DMCHkz+N7ADAaaH0TttP3aucc0Adam70UB1uURfrswl4kCLU5wp3a+bqQHWxBYsCXl1aU5dYj9mUR4J1t82bg7u+VFo/8YAb//Ofd3SuVh9AHgQuB8A657zZ/PDdy7kxZPRZpww1CF4RI5QsJSNYns3p84e7hdG09gpGKN7oAHODKqX6wsm7vTs9V1uRJsCv+Qv/rbnZp4f1UPAqYKlK3mB68v71pR+I4jSSKVeBODVTQxQsGUv+TOJu5X2LaWxcSojSmrS3KOatB7D+9L3W7Z+uj5sUeNW/89fPvT449HuQbwe0D6gvvdHkxDKdMGnfZ8XRyYOnLFkwNZhMNUeE/jnF3Wp8n5xqMJk2vm+x3UsBVShQ5SP+tdP2OgDf7j3IrXOregZ5Z/Jq4Iys+Eaz4x+c1Ht1APqMRElRmDSsWSfNOBBztxq1sXFcfYpCFJDi4kZ2O1ZYFeI7PFPfMPOAV78z+dVzqQ8M9q7gC4DVxnvD6ckz06LiZKfPqNNIo5AruSTLJeVyoOZu4RULhVwaKZZjKl6wCuZmG2eDf22Zl8AXfO5Hz5XqyeDxBBhF9oDxpfuXl094RRXNqE8uaRz3hXgVr675gM7davphKdYQpbG6l0LIXrxChdtOfbRz2mPtAnzET54bffIN76q4AgCnhfLrjs+uMsEotAb1AEknV/vcrEHAEOPAz93yyrHqjRJaCsSKhgUXsllc5tWZTzTXT3zgCvDX/bA5T/mTyDPAJBD+tSfnzwhFOqzF1M1hSh6bvG0PCUUODtwtl0jNLeaI4zW3eDWL5oCtn/qnP9H6tsArP9/nNvUhjySvBu48WrpfdWWMWa2eJCVQem1zY01dMGkFO3hwt4yYoiAlW81ArmYsJEpAwqjm1L3Olu0B8Oq/+EMOzCoHtSIvNE2Pfaw4tv20nw+sMv5r1Rc2uXZNQQ0zCJo904tDaWweYQcb7hZRYkRovdpkDjfbqwTJ8JJX5slpT7SXegX8/E+TURfOCn5QBF1MPuJG4C754t3y+YoXEinRG6AA6pMVOerBiLvVGDytSDmm5ZhCAiwWK7kvW3YGW7b7wI2X/Q1ARl31g6Ln/cBzAbDGuq9ZX1xr3ZCQQKjWdgRSo66ZxQ5W3K1ADq045sFczDIBW8iwl0ZeHuSpZ7vLggQ+9kcBMozDrwQfcRUAzsqWzyqWUCdoraSuqqnRN3prNDyIcbcqtWavQjUl0qoVQu6NnrJ5e7BpywXuetnfzTSeOA+8PwBWKP/e1ak1xsHRQgghQqCFjDaL0DvlAR9NeL2KqTuDOsxnEHfLzxfjVA0Z3TXG/b2G9OScJ6yqBy6LEJG3kLvLKVz+TugXdd5+/8Pz6/btJS4F/qdPgDnEbvaC96K+FACnpyt3zm4oqp6cghbQTkOfGu2ZArObucS7prfg0obF6AK6W3so1Fm7UNo/DgqNHCp0aN045+JbfXUsq5Fr7JbPn5X//U3n603bg3UzH/gn3ovcfADWO+DDyGMapAwKMHas8P3xT5xNfTOMUd2rPLPBNQg4EQ0aQoAYokScHtXrE8NVwHmu5/1eOqiJw5DP3SKdY25TAyPdea87ovCk5umFXwRIpNAXLlxklkvfS1hZmccnPdwZVRpuPpv8Exw2Cu1SbSe1gGj5u88TAWxytTsX1/7CUECTQqSUEjT2kFQFmAggwDoPT2WPiVQ6ByWguzVUqbMk3/gmUhrJxDrPInNFXrwFcr2hWMuqLdZW2VjcvDNYWcTApzyfcBgpjH1AO4tCvFusRl76yu0EuH26cLLbDiWRwAElBDxJoLgH0CoAMc62QHF3rwA8JMnnbikcPDLJSY804O5HBW4Mz4z4LnRFAsKaefkuVVSoNARfXYfrN3zg+7zyKHAYyfy1SjuB+mM7eCWwTIV3G11aoX1NmQLqJA+NCkddNaLeZArEHuTkiaIJu7RsPoe4W4gtamfrOIChSAcbLZBd8hJ7cQ1nuNeW0rPHTg+YY3WJy7accRr3C9oOOGy1IkpeAl5IgI2ufod0jkibCATVqDpCDQFKoPUGd4uq5h3UIz81NffkTulgMFVIPndL81O1tHQWSs476OBEtycv30PuoU9JNZWXUOHSLmRUw/lrVowk8K/98xxuWhGtaRpuA8AZofSrSGhEKXjAOyikULSbyt0CUSX2+b/NeyhL+Ftt+uCDhIDuVg2dt6rEIe4ax5ZOfatdD9+esIwvLnUI1F5hq3YdyiFaAGVFKX8asA18F+buVnaC55KjME51p2xtuYoBQoqhAwUNJYUSCdELqmguIQTgkwYxhjDhg3TqEmeXz926sUY6iFLynrzr8IvHOXXOkyVSIjSNdKGFyvewK4p+wjAcc19i0g1b7qjWcPR54AcddorCdOJHnw+Af+d2aTElQOnKcRRAk0OC6bhbMNsCW6EkmtEaqc1hIfncrecQ4RS78GhYTMg1N7h0WvJiL76VUvMDpttSNScySmBiBlLzf7M8SOA8sh0cbooIUlxIPhAAm117s22Z0UHsSQEPivvxhkVHbInq0aFWFYLGaP/IE92FDuAjnEbyuVsgzukCtkC03vUU7DoO3293FWZx0aMyBJf5qud3KYKBOtHLP7WiTICf/YHkMFOcseYkAPBYsRnF1icBp/rKKhMMSQqQvCQtuDJUAqVMy92agEA6z1rjnIYIohNWIfncLUPSa+ocKEig9IqquKWFykJXEa43SblrsVVqXeuRSHKzatVYmsi1kwD4pAsAh5mCfCcyXgR2Afg2Z4biONN2aC0koga6AKjHQElBIzFO4W7VFGCwoZNPcLCOxwYdfA5xty7dT846MDroSIh5eE6Jpp2aEwF6nLn6LBcuFHo0sCManNCpjynWzoO/GX7a9+JwUxCdP298MQFW6vCUpCoUbAgkCiPUJWmAoAU/TiIl+ggo9UJNxsnUlH34UxysmCH53C3fh+ZWpXWNaBJ/JDlEHUnjRevR0nQ37Thddu2RBIRqVb1Gr7Z6Ei1JUuDF5MbDTBorOLMPcqEIYI1x11unJaQEQ4jEFCIRVaZwt0qchrvFhFoNZVEeTz0PRGHGqXwGcbdo5QCjcxy6807bbjXO8skCL1wQylWzlLeuCtIookUzHNyEarTLc7ksKOBn/D2HqZLHCsl+GwE22u5q7akilBRhmBIC2uGoE7QUUlc0aqR3aiFA3zZ2KMdryoV3gYUEdLdW68C/a0AqkWTwpvrWtJdScIkLYWlZt0Ieu6zEhgxxr3j1YgGvS0K6vJDA8b/nMFMyVlxafdLfA2x1zWVK0gFAoiXTNq6AAYS7haXEEXO0OoBzSzUft+mqMgb+nk+aG2tz/NXQbk1aS6hAWw2SbAg9mqAwoHC3eJihVDM0V6N62yF/xcoyAV59/PCSBkVBaXUZ+GnwXT89ByDTQwsAmRQGFu6WhGgOAbfWO6BGYvzXJq/x3z4c1YFojJp5O7gZliq53ji99t3ksZ8k0QTQp1gGGu4Ww1TxClQtlumkIktzNWY03PzRh5naCMjR5wArVLRWeeRMGBZH2gAMIaeBh7tlR4zqJm5HshaLrcMyr5bYFPicw0tFwnG0F1wJgGVMlpuwo0dLGBWhrYqRIl3PAMTdAiwrEWiPdIgA40k2ZjXwSXvB4aTYzgrG0c1XE2CZipdRag8ZipPbpKThCDUDEndLnNaQighRolm27/xtgf/hcFJsF8TiyHeKAJbr+Ps50CfpGlNTDhEGJu5WUTPP0S2aEgVq+zePuwzYKfjhJBOROPLdAPjrv18/7HrJfVu61iVVQRmguFs4SkGAI4JHcRnTTMZb/XCSiTgc+VFgKeVfCDoqIiSEdrImtHQDFndr0gTaDohSpC3+078zcNQPNxWVwGMFYT/GtB/isdBAV0EH2g5c3K1MMJcaiWKWo2DxxOGleEQ6VhAaFeC7/iu0moYK9H0YFqRjAONutbVCzNWAVjvLZfFvBtC5pawuAZMXAPG2m6yoLbQ9Axl3S9xLBRdzybF46XxUA/winUvK/vBxAqRSh6SEFsI+M4aJgY27JeQMxGGNmrN2pQD87T98Din7i4DdyHWBlip0Q8h0xboBjruFta0cEY60RMXM8t5BAL/osFL2sSWQpA+eulwEsCdamTQktWgE7XtSO9Bxt0zEooJmwXENdSIKYLnwww8TJUn+Cb1DHW+B/ftl8H+erHQ/1Y2/3k/fswVF6GENghaz59g0OzcgZADHY0/gJnCK4sFDwVvAZQDgbinvGZeCuOCqAKGOcsmVXTliE8LEIIA15IfPCT3mxYgcvgD8xxMW76e+4ff7H3i2gH0GUZGUYxf0oehTpzf4ZCFAjxIpKKiHSCkKaNcHBgHuVm4J3Ohqh03DZ1heM0I9R/oS9vYC+FDmgMLwAuAx4z757N8fZODZjM0rCN28m3Si3LPTO9AHMciRQMA9AhoIgRgiMUfa6u9uhbYdQwY1Ly4whVlkstFsOf+/uzsTWAcOHy3OT9L3jxT2SWb+/rCTP9sZFc0wF20apXbDoDUvBrKmKYHH8dJomIjEUijeF4KqDgDcrdLtIq7bU2OBW7VZpthruSAuKAt7orGnMw4TxZyVJD1G5xQDtFL4hDM+H2XqZ5cgk9eQitA6+j7h7hmC1S7LEDJOKgF1PCqE4JAyxOBe/d0tNfVHIc9HqEbVtJbP5afYOkGDbEdsQomJXuxtBfzszWBup7Y0o7+Ad41a4WNN++yVQauQucbcIa5iMFSAhAjg0CONCgeCQylAVKBQ/d2t3JsuNK1muiGnV/OzRET21mqBsGcw9vQGLAMbhTkdi8EFEKUYUaRuDqg4OQIiUhNUvGakd3K9dk3heMQ5HghQlOOFUJwUWwL0VH93K1FA5dtDbZVMuTp5+LIvK2Q8YLa7Mfe2BqwSPvfwUHE/JMmGOD4Z2ggbKGcRjwPdtQoy7/C+dwaioqkT5iI3ASkWKEQneOwoBAXtiE6u/u6W2plKXco79SAucbtdEwm1hApMKIMFdq7MfwpWk9VgrmZ9sGNUBsQtqKWitAfUXEUy/bUGoJArfSa3hTQAHELGUaAk8IJ78aIo1d/dyvmDwKd8X+JibSqny1VKqRex4sVwM3ae5CaigE3CKjA3o35iyxTgOd3tT+8eeFeliR0i82sg2qMEOoiV1JEJ7ChIpBxHGyshQmpLUk9Oouq7W8JCUGqXybmRWE3O9Hl5kSPZMrYAtvPIAk4DS8GcjLbtA3CAVj3k4BePX7xQr6wv1+rMk0gv1ybxQEdsfSQ36CVDJPYBD4Df5KUEQsltdI14rP7ulj9px8BVBz9NbZSmteVCTs3QA4b5yw9t4HZgLkbb9gDG298zvL9YwqxHHPrwkU+8V64uuNRegEUnXVpQnaEDRIlybcHxSHIoaMRVhUCJkEZEKAwE3C3Fp/on5FyqI3Whpl0vfBXsmNpkgsH/e92+DdxOmHvR5infBXU29qB89uyf3LSn/UAlzUcffOvhTn581ELtYl6Q6UUzOaNIbn1OXaf9tSALrp3jqBdvtHKNXmJQZwDgbrVyCdTUYS6xXH4Gq/x0q9iRBQxgLw3b3Zo7j01YDk4BA7S84aMa2Xm+yrNpxogCaFTaSPoN9+d9+5yfnLt377uLNJM8mXv6NHHYEKFe6xuymHdJKnSg86S5Sb8QACixL0HdlUIbIQXtJ5sOAtytW1qU69PMOj5gaoooPjuiEFrACobTs/vU3LWyYD14DTAwKwxL5DwQYELU76g7wwpS9xChVG21QhnOWbzvn/3Tmx/af7+fXYsTcN57yCresrAGF6Q5EfFg4FfumC8AYozJYS+hoBCgC8WP4x1Bofq7W5+2IzeaIJZhveSa1iJmZrkYZMxqNt9xbO1pDDgNrAWDsio6AJBmVnVKxLgukMCvUh+Ny2z79Zk/uf3R/JeH2Xnggdrznj5fg0UPPX1jqN08VZQ20SGk1MVCpw6OK6UQVKJGPT4IcLfqO4YUiMhDGeGqKmtpLzKRa1Asg2GNbvTae/mRCJwlLAGDsdqm50AVnmlSB2ApUxowMMb+e+pP7n/iTx/dxQEOGX5W2uBytxzFDDgCJR+5+mYBuJswEOu5m1jUoHE9LgCr6LdZiDYaE3ob8/8TfPLkTsY+EXDUepLa6HK3MLcFMNSDlYlefGv4C88ig7AqZVGDtuyzUQZUWb3BUsv8UheX3FAusp17owQ4YTlu3ehytwAaV2VWjuWdK3PnoQlbwGnC4Kv2erqqQcMKxibA9xxDSzsGbQqd5Yxu/4FwC3ZQBJwijlg2utytfWXOQuEYYrW/bj+/r/M7CQNvBxHYKIsKpGZ0SN3DIpuFuwHoc9mAISH5rqpNGJz1HDJudLlbmFWzbBU8H7n6en5fB/cBOuCqShY1aEabIoAFzLXRGrTjFspsdDauYtC+3TYE1ryHtL7B5W4ZhEzJblaLX3ltGH74fYTBVqdqe1WDtu9RmgMrGDRbYqz3CNaZDxUn7xft5AAP0v6eDS53Cyi9UcSL5496+Z0cbAR3AIOsInGxLCpQaU7qsWqsWukaGKOxDPMhTe7WbskeEXDE8Ks3uNwtN3PDKZKl7Ni3fzTcTdgIBlhVt2hs3NTMqjtlLeAz5vtztbvBoGGDzmmTNndrO2u/ADhmPeHY4HK3KgDghXjkqmuFiUHA64DBVWdoq1RjFTnNdoKqM6tFiYDDWIRjcAGDdoC0uVv/7iYZcIL4ERtc7hbYBI1st5hlkO0XhuAXPUAYVPW9ZXIA3LF+rR9Gqznb9NmiT2o+fYOXadCWLaDxvLS5WyuMG4M6OON41Q0ud8vMS8l4jZZ3rYxrbhbgVOFMIKhqWjSqdYKsT/evVJxBjlkdoJbqCg3Q2sHoPwDtggq1ms3dulm1hQHnPIeNG1vuloIco4+CWL32Tn7XsQkPIGLqLG2WasxNewRpRFRzB3tEgH+4LQLL/WkMjjEYDzvP5m4dEO1AQB+U+703tNyt7BTLRyQesRivvDgU4JMgon6vtANwXnkT5BDZ/pV6MzVhdAYcbEvj+NTeOMZYLnBxXVRfZTZ3a59glwj4qWeJDS13q4ghRWKVKHuj2P7/IagUgoKAqm3/SmPz5vOCQFRAtRmZMaMLrPAGa2hrAHcDaDA4hRjYOiKzuVs7BXsFwFHDKc+GlrtFm3M5YnyCEa/bt19+18Y/VA0CWi6pjSzA5CzGz4PfU2/2iIE2wkNtMZZHK3JmDGDZGeXQNwZmcre28Q7KgOPOE4YNLXfLaomesHpM5MpzhYlO0BwnBdEUg1IOQGqd5vNiATHlr9SaZ1M4kwE8OvGNYwEIYIQgQICxVmgxFydhCDi0v3MguMBt5FE7L1T8knC3HAd1l5jch+A5e6/BExIiaD/Ha4u5+ph70C5LXEFG4jK32A8MOncrTeVudbOGu7XoSBdBCgr1qLk+BOMi/n75+1fePB8TQ/gy5FIwYKpuisZaJQhBCkRHVJoFTpwWIFxa8nhXx10giCKJT0ZLEEJs+EbpSFXFw/tXTx675V3V3YTBWfKQPqnTuS1s/7lbDr3ihTKEnkBfiuJ1WGiFZL02lsyD0VeaKp2OQ9MMCmi7orhbQ10cFmN+OJyGu5W0G/juFvvcIcqIItHa2Y5zysv8nO7br345xrzmKvDFyWCpzvEkq/HXJUyQA5Cs1rzYGNsAXKvb+Pi0VxBwcvTaz3AI4PFUYLVoxXxewaa5W6UclHcrA1b9DplTEJCZ4G6RHe0IxSDWTroQsgZyTxRLDHM8toy3viMO0Mt8Ps5rHuf9kK8E7laanrs1TNNwt7rZwt0q9SIDhTyduJ06aHRF5ncS+kXru9O+asHjycPB4FlGTXOrEADEQaU5S8FsFvDQ2DcFpA0oEELw4gISvvPJQUDoqKjDfA3VptFqNwx/agcHeHB+znouEXfLexSH6iDDUFqtNbXQZ4aJPPSNZYVa87CCVgQSrQLLrGOlG4TuVhoOh7OKuzXZZ8OZ3iXEVZdU8gp7Jd8v/Wx92Vm7F8CXUmwDA6S2T9FYSGK634NGfPd5qsxce/4PLip8anvLfYQAFaAgHrwBhccIJMxxqxhtckVQopTiz7uHBxw25zTZuc0Ad0szDkoYQhsr4gHLFYcIvaYuS5yPMS4lRyEhsfN+jD52MXKlcLc6VZJm6abhbg1B2zAruFsrdHpM1ENFqkd57cPLnkTO/LEx5jK2gx87OKqbHqsaTtiyfh6ouIOXmiAc0K9/bPKrQZDgABcCIiDOhzZc5Nfiv4RWwbnGvMBEx1DZwdgvAY5ZT9AuCXdrcqG4UhI2pHOt9HRFVIjQ58mJMliiI91An4eqY5QKrZfllcHdGvalm5a7NZQxYVZxt2DXNQvdaDPz4qotPmCWV5GLsKySp37RgUeCTxsUlVwyRWNr+bwgoOLizGCXcoCHxLw1BphPjPIBCEDPoFarTnGhwMxqgkqpjm3h3SgvcNLtuPZScLfIjSoXt2Eild4DWVtP3qrA0Dpn3nKu8/moJEahy2OMyxxHvA0mdytMy91KdLOGu4VPyEhAc8vKSVhOeWlGlM1v9Fc/HMKXIv/3gKgdLRrTcbLyeag4U8i88Ejh4uInN9U+4isgSEACiesKSe52DH4NK9P3nWXzjiJSprhbW9CDwdPBHzpiN0PcLbJShm3EjVwUog4LFmhhrkuBUUEy0ms/DCxZVqWLA/OB724NbwB3aziVuxVmB3dLpQvlGsp7IE13Gknll0Vq91PO+KE1qjUXgq9FBkP10CODhhV++lYpUiqtXQcKRyzDg6LfCg48wSMm3gICJk+W0JIGUL2aOTLjvrM8sIl+c9gWBM6R29qD+83dygooTheHoAHtzPvO2w6VdmiMc+I4zyCjsqRLPVH7HDtalfFK4G4NWw1AB1pUocZhCyCiDGcDd0urz9rQI0UNc/vYZS9WmqG5rZgnW9/vwzcl54BBUCnSdhtIUI+qazcB1omEvzhoXIsEfg4CARfwQEAc0BJih9n8GpgKSqBjirt1QD7bGSAXN3ftFXN/uVs+Cu29M7kwpPmFaaZKIcShJZkUy21kGGJHTHRJak4NhbzMVwp3q9PGcV+UpKTZxt16NQ1C6/eF8qpUWOeMhbw677uTP+guG0uOfqEPgNrFopGXSxdV144/ncDWxgcvyHtGeiaQZLsk5oDQaBRea2GezMSuTeKBjtgk4o29gl084FN3Sn4/uVsIGXXcemK0DgJowKkpQiQQl6tTtZMeBZbMa2ZITjf8uVvhQto0Ke8RUcnxenq5iCGMWk7/oQW/+n8f/NRLDwkSdernPVfneaRZ0gXWkpVF7ficr0Lgfr/fl59TvBefaBGXuH5Ceq4IorSgWBUDFp11aUEtDB1gSrTdrL2SEQDbu33XDSP7yd1yFFeGKUsapoJX8MqQINIYEpcD3RipealDUjLqMrIcc4U28N2tYVtS6q6HuzVMUYezh7s1ybh63Y78r1tmzcZlrCK00/7e1pyNNjzvwa/9nIGvrFSKxnXP/QGQro62nSP8f8VG7fiapOdRSW/s6rhLBYJLtkLiUkLickODMad20Rc4Yuq4o5g38dR1Kte2cda7JnD1MHn1MLE/3K08Cq04xSmR1rBONEAfYgFarszNp8cdAUcHPev7Ls/IfGb0wci/7ug7RjoGj2QF5oPH3epgWOmm4W51s4a7lX31hmygvPK08l4uu8xPlyur4pzydfejuAJ8zqCnJ6Lhyo2oe7sH7pgCjkDlOBc8iPCMB0a8I5I4uhBAJLgQEg0e72nVulvSsMW8S1ahA50n9WaysCUq2WgbwHX96JX93v3gbpFd6Tu0oydBaWPt+ox27FXGC3dz7/nh+Jf/9eCf+pupz8rfH1O8DyFLOcX4MriPLN6fUL4/G399Fv76eOL9scX5+myrCNoxMAoVLiSOVwB3a9jq8Pq4W8MhaFEtKQ1nA3dLNLnaQYeUT21uu7zIovdQSEtH6UkfO/Aff+Rgpz56oJWoWHQ/7qWrp0MAOFHt+NJkD+A+vz48Ym4OBAhIYuYNBALuyT33iiJmpbmRwVohYqVUx3yKuzUKvdWXRpnCh33qfnG3HAGPw4zE1NEFQK715pNfHf3Gv+z9k387/RV+PfSeH06+eMcWzqMPArg/+vH5+8vxcxoFOIp+Xn6+DFvqtBeY1+jEtILkK4W7lfaDu5UGvrtV7sVuH0K54XH3ms9Mi5WLdRS2vNNfNpUc/f8HOqWVtEh00gMDivIRAM7GRjZM++O0EAmAd6gcjwE/C56Q+VIFRBJrUnO0hG8AiUVoOaQxMOFAsRAQ5HbuO0u4Sdhk68sYw16xtjWHJsS4odwtBMVRTaBgRXotmXLOI4Vv+f2e935+5JrUBIAHs90N/eT89VJM+a/EfR4M0kCGygra1ch8ELhbQ510dF6Z9DPB4nCIljSv812aFdyt+lYXAUUZzrlvDDAV66lAGqaaMv/0qd924Gf9uYOcWunzpHYNo3VKKlj3TJGFc6tu3PqVFPCA9Do4JLl/Vu5W9OKx3QDO5m6ts60V2gcuaWZ3wZph7tbnAU09N/qZ+et/w8uFTp+TbYPB3arL1S1YUtY8Ga19MoCvpLh1gNOdDJKe+ml4IHkpYIzZ71f/OSRbhHZAdu5W0IdCZnO31mpnte4D2/r9u2JhZrlb9/1n9If8vvV2f3DWH2VNPRM7J1C2Q+/FfT5e7+cj2d+bIAC+y0aDu7UIJZUeJ/0vIwr+u5/EQBvUT8OV4OsQeOv88GmmijjwgmXqbnlBCszkbq0w3jrbBq7qdl/bj88od2vtMrv3v6O3+2P/T/xd9bSbkinh3dLz5FDegxzwBO5fbjS4W2wbWpfBWDZXm9504RM/aXDThW7QsT9XFLRuhkJuSa6iXjT+6FYx+N2q/0S8SDsACRm7W1p9MeAzuVtLGW90deDafuKafnKGuVtLBv02f3Kn6CnoeXK4cB/GISYANwMbDu5W9Y2fG5C2ftIb85pP+sTBTVNwl0Y3uzn7BIniPL6jjqq8/yfB71Q9uU65IgHF4bN2tyBYncndGlfqV7WwYxje1u2fYe7WSfdkU/ugd+mfOB+3eLZAE/dyb4HuBoS7pRk3Enlplm39yIGf9As5fB++JriVrab5DsXzNPsQl727BSTMAIceIbLVl8apYLfkrmgPzCx3a+0ybeot+2c30OARkPfonv0Q/Od3T/cuyAaEu+U9moDCpvfcpbXi1r/18L3OJe9B4Pcs/72UihSCGEg/uFtS8Nu976yNprlchTAB4+L2rr0wZ5K79VOaelJ/A+7Wk2If3n0+pPv9AejzUXqep/RtSLhbmWBYJv/TJ33uwHuQ/+uwvb46cE635TfKzsoEhXl6duwXdyt1xtxseu7WGttdaQbA5c3ULrFnkrvV0Bboxaa4Ww8HPIpvK7Ix4W6laonUpz6se8lfvpD4Lz9cr2eCxxH4vct/fXQ7bEWc0F/uVltYg+m5W6tMf41xgCu7vd9tBrlbAPyXjQ93q6VgWK5j1Fu/6MO3GyyfKlWa7JrUkK9G4Cy3/trpFRu2Q+eBfnO3/CLuO2uFDjbYJnB1P/n3zhx3q6EtyAaIu5Uyk6v4umeDFWckfDUyUCo6GY1amvzh+5KzCfw+1d+GKWIg9KO7hViGOC13a1wlG1wDePkwdmW3Z8a4WwAbIu6WJQw3qp/0pQNnkz9/kFQUkPg9FeRrA7iHX7h3shCBJIR+dbcu5r6zPvqkZHuUKeyMhU+dKe5WQ91GiLtlJGrq0nD12WjVXgT/4SAp2ajMgqF+vD/Yl/4exX8igAWhf90tuyHPO2uTqy9lAnvFurw7OEPcrYbUQXNXffANDHcLyykXIps/H+xL/qcBUkNUyluTLaF2fC0F3D1ZuqdfSMOI4Olvd+sGPe+sda61XAfApc3sHrFmgLtVm8UspXaMDK3TumHhbkFvBR+m1Y/GKx+N4X8cHNVfAyG72vahaDUBn4gH6WBYY/zk1zOEpZLWnw7g9xj9B4nDYUyE/nO37sh9Z63RzmrjANvaAzuHof3kbnWRMGxmIPkYduR848LdSoRELd7/ELjl3xoYVScgi101DqmJeu05ODac0e2PAWEI0gCzBybmqnU++WMR8fUA3C1Z/p4Aloz+drcu9r6zVmp3nekAV3V7ro1j+8fdKgIFCIStQQNLKkuGfsPC3YJKlxBfsxetfCSGrwcGRAXqBalyx9sSaWW5dWLlp8fpUaGtpikncuu1ZT0xC4dzIk+KwO8++U8kjkLQQnp36wPm+ShqEx7yS86zF5V6FKErN/R5Zy3TUeNu1999AgiJNYhMIrvAKoTiuaxiEx0RPRXyYb/4CtBRaoteywrqAtq5hdwtb1EuD+4W5VNELgKNxSoiGVchSeVujTfoMN4tI5fsRcrmTwfwJHIOGAQVoGuE1qo8FrPUGWrNzCQlMTr9Z6348rb6TlMAZQMT1i7VjHD4hgNwh7B5v/Sm6nxjVErvbpXZqQfQK13vn+hQfog6fjT/d9Y41WS8Lg5vb/erkxkS9DQWQspQW00umoRTIR/2y28Tpxd131l+GXG3dGVv19ZVKKfTGLK4UEn5rOJupZ4CbVj9RLx8R8I3VAyC6qPTpFoTOaBZQBKjjj+hxTcLGlm5Bidt3TlMeyb76gAFoH7cTDatguFC4RE98DuPn2wc8RVp5zNxtwKBLj+dj1LlVZQfhW5X78fzztriy+OUsDvaV7QHGl+C50QEEURUPc5diQInIz7sl1+ngtic0qQjDiBraMDd8nEug18W3C2KzMIqx4pIEYZDkAR1t4wuaKfWb/poAI8AF4IBUJ+YPJuizVGd2UjijbXKVsYRQNkagdpWOmWAavZMnZJi4Zv2HOU1XOP1iguCRubnmQHulnGZ5pJKEdPibm2oTfbneWdttI1lKoJ/9+Lm7m9BsCHTxFGNVFrTIWvFT4V+uC++TQUVavVhrBgkWgWWfrlwt6Tsc5culpSSI1m5hLbqs4q75UUpPsxrn4uWThRHvynhkDKsJNUNANhiS1mqHB4BONheTShcAR7WA1+sfmqcmWLzYMwAd0vu1CObrhz1sPyq2wUX0LNfzztrre18AnBYe57EgwSiwhomTT3jYtr7dOAW3neWeTQSFrsiYyyXEXeL6iVSIGvJL5Wud0IvSVJ3S8kEKWVEs+FjDx5GriCHkpqkbeFKIYVqYosPa3RJjm+EwsM6dgDWG+ctRicwgfnYzgR3i66KAdSW6o2OVUbVo+DQI40KB6bnbjXudn1UexsVtAMaiGp0WgNFVmD6k4Pg9u47S9aAgLtlFZrY5cDderaeVFxNOw13LknsRXZ9bnG3aL3iYbjutWC8yLjxYeBQUqVy/ToFbpyAZ6l4bCxotz6wB96+fGmplpPjWozzoFm4W1U8TkNPvLCrTLoL8tHQj/b/zlqhgslHnT5uOWEld+DiygIqGVf6SH6uyQbuJHp/GPPmPuO+s4zOxxiXHkfKZcDd8vrE/HVaanC3/MHGt8pz167PLO4WOqQfShwzev07ATyQ3HpoqAIvUvuVhXcsVhQTyU0QjqlbP7rnEoElSr1NdZhWVedhRrhbeZ0NghT0u+tlv6SiXKKLnv193llLVPLfAKecx4ygNKB3EZfUvKJnpc8xZZ/95fcH+fHrp5zzZeKO4z6+/Oczsz+fEV8/egVVMMdE5XLkbpH6Vlcdkili1ecadyuXkEs71PVv+yMGLgGPBoeGmvMrnvyN0ZqI9MKFW6HwzQbgjYuz601/nmgW52nnZ4C75WK/pwceZyhc6D08KHL2C/b3eWeNIbtZ3ZeDM8QRLWTNKAqKrmIQ79XFB/3h64f85tunmvPlG9x8FAB9Jvb+rOKvj3Tx+ZzsG9gUd0uIKh47WrXLgbu1RayGotoxIEH0ZO6Tzy3uVp+17TR244Ve+3II30zBIWkIQyeVKJwpUwXCM4RnReCd6mc1Mq86H22+nc/A3cKVPhR6uYqGD8oIuibA/j7vrBuDtjDgvPeQNtFQUaVBQ709/Q3nE7z7bZXJLH/9NtxM7pZVTw0FX/plwN1CLQQWV5GZT3G3FiqClrDuVm8afRiHGz7w4FngGeSQVM1sLCRmKwiEB3bAPdP5OyRFEBNr53VGuFvYL46r55GRl1s+yOM0IU6GuH/POytzQLKDATxYe84nXpFeHM144uln7zO//oXZ/oC/tVC1M0GBJfPqDKlcFtytLZRJma2gCs9dQbALJK271WWk0C7fUiv3YnggOACpbVzJalWylBJF06aB0GYR1qkCoq+WjGisJiIx2NcVwqMG4B2r5+dhBFpbJAKa3t0yPX5ENIrOUpNBmRTVx9r/1104wG7ZLhFwJPcMuaCwWFBdmiP65IfuJ/r+x0/6RN///IQ//Pym3/QT9voJev0EPX6C3v2Fj9+zj9+7d+V/XlDrIXfL0WIjy9EvD+7WRbW4W+vkq2PJROxFpWZ9fnG3Sq/4ULp1HwbwKHIFOPDoFA1QrWwzf6c4HHtvRZvMXcTD8GRuJ1ABvLCNIBDeeeCnsdF2Xye9GgEznSnuFjbVkD1S73rhIuSB4EfC3dqf552VSezk7ZUBt1pPEkKv4qrgA7kK2oOlsYD6DVAtQ+mQKe5Wifhlwt3iErsmfbsUaNLKpxvUGLq47pZ70UhZ83Q0Xmb8tHcmBx5la6uHC7QowNlb5f7hk/Ns1cIdC4p4zMfb0TqX01MBpuG+TQ4IBH9ID7zN6Oi4yuaZh3nT+ZnibmE+wNFDP/Hqbrug4yrSffb9f92F4LCdcVAG/MpfCQuh9qLgbeFN+gWD2NIugrtlVKh+eXC3nh+CadzqT8d1shrcregKcX2GcbdkGPKwlf9j3VsBPIT4AUerSJfOwXEj54EK5uBGdUaiqDBbNr11g9BOFTjz/QszQzD83rFaM/RQAEpI9ZoZCISnRS4QGGP21uXRNoI1MvPzUdO7W7h/gJX38FCSl3Cv8rs6wLJm4HUXDpDTZuSgCjjteKgKEY+xumqegLdUSrrBB6mMYUeupE7FYF5jIaalXw7crYtiF6QkpRCnVIaSPsu4W1HaSOrWvRmOKLgAPI1w4AnLlb3sxYJcVu5ZPxu0vc07vCmSHQQZFzaoE1AoekY2tUMzQ/Q0vXI4AJi/bCIfBJHwkA547ezqFtOVeSaIIs2yGeBuOagefDSCHsWj4SMHlylC/yGsuzAnT5DTzYrJd6lyWNurNFITb1WUhrCkMfgM7pZAGvDLiru1mt4xF6cjSyumuEQeu4i87tawHw4lliVVtuqZGB4COACFEuIJb8hsXbTvwQHL1lpByhIHiVDsGagrB4UU1pedxIUIhcuFJ0TgbavDMUYTsVd07lbBW2B67taBoG0MWPPeol0FZ3O3yILKfKPF3fIYI8N23TsBPIFcDg5ASl2g7hlkFhOdsrJMkNqofjeiEjvZgmkRriMLFJHw7gNH2WLb9ws3dX5etdVXEO7WD2HdhdNzt/aJdnKAW3LPeWZyt5CFiLaNFndLZDKRlU8mS+qUo+9OOACFSQAAeMIJOjm7e3IE4IMbCWJB+Xuy5Da6orN6WqNmpUBcGt5idOL7SLuvvcwG7lYk5sj03K1dsj0i4KFnrLO4WyIqDPMNF3erjbEd+uKa10M4ABlDHuq3Nb52jACY69UMwZCP/Tu/EcmhOigZjD49hyZBCsBROkM4vpkIouDZwnkReIvRSYkiSDsruFsEVcVncre2c/bJgOPWE44Z3C1d4IO0DRd3azgcAqx9I4LzwLPJAUh5IGNLnZyjfpBYrd5eRGYm8IMvg3Oafe1O4QIAf10t26yTBeJwfM+wcLJtME9Ly+zgbhGDe0ozuVtbkecHTlmOGaa5WxKY6Y0XdyvGtovKkkm64rHkwJTkojlNj0nL1w3SHpZbUVjO5IC/advMEiS/s+6GzcN3CsKgJQ/vgbcqjjPZK/OzhbsFBXIXtAMayCb0RsXLwWniiNkUd2viZA3YgHG3kEorrHkzgoeDn3YAmgRy43N0/8dg0EuPUYny5ccRl/jx/evcaSQAnvCh1wqBJ0WuAixX8RvkF3UEQoE4a7hb9AA+m7t1k2oLAuc9h3JC7lZVZWhd2XBxt6AdEvpVL8ajTnMVeBLB9IQzkAjv6qJuTNOYmssLIhOTs6xUtQCchrkoBN6zB14vu7RCRYYxzyzibpE7SMzmbu2XbROA3pL7vTWJ4B3MdWmwweJutbRSZNxmq55P4D3BgeuZHYdlejXaDUgOs2hUrWaEJoqUhVOJKyMCrgFPjMCb5GcF5ltsNnG3QEk5zeZu7ZbtEkxw8mcovC3k2vTnLvSNFXfLhuZda6tfi+GJ5O8xWQfhinbVejk4aizJ6YnYmBRIdEv2qSLgsQM3sla7Dwg30TZKnGXcLTo68mzu1k7pXhFwTHuKFDIqNinmbdxgcbdi0iJp5ZPxWKa58bHE9LiSzv8IEs7WQyKAHco1JJWi2S70Zp8kJBbilLiqsid2T7ulPUOyPc7zjBPi9npw5Zd9I8CXiULzG2Xnx3TWmgGzjbuVHE/kmdyt7ciBIOCE5bilgRChGPgGi7uFOM6oEqtejvdlTVZDmvYNV3ybkKZRSv7aZAuVNf6jcFmkKVIXbUrC1LK4jel/+5HVvUqFcr9xqisHJwAs1Gz/WhX6avxnldk8VxdZBtnR4/pKzu8/DXkLcOM7tFdbOni2QjD5sLMj8KbZWRGdJ84+7tYkDjqTu7WJcUAB3Eb8w2g643MXbrS4W1EpJax5JYSzSVAwVQ1E6I9r0VhbKsBdSlZMtJZrNfzuWv5bLiPpWd6r5d0gcU4oeumAESSOH0pceMz1SJ2TVpqd6+oofZuP3Pxf3Z5/KSwgB1RFspGTTUoR8PiBo2w23buHxba1VudnIXeLXMmtn8nd+rEPp/oRcJY4rN3AcbeG3g0zy/fkeJVytBVM1pKUhBFlydukaFSotjDNErY132nTn38zlaDjJ820InFQnPvSiKiQSsuxQTovNQ5J57g80QEF01JB7BngJNtP81LJSSodGGVOioBHD8DrZ5cWRyAEMWYjd2sgJs1pNnfroGIrAx52KOfqho27FXttqbLyxQSaBRPUWrczHmC7QaNYWZSGHLnLYDW4gjQbrxsv/9K170emOH1GNCrn4/UvUc7lhBSgWnbdywNKpqaWZOOxddyvmuW6oF6QWFYcIQCuJk8fgDfILqKtRp2d3C2HVQz12dytvbLgsuuzng0bd4uY+8DqF2LogJeYqoYHT9YqCkGVAGCuKhhQ/WwFa3AnmSLVaIWbjvvMfyN1ZIzTp9XY5sJao+QlwTY0Z1yU6J1CFEpenOqzKJs2oCVOsFuFylWmU7K2SwwArrR1QQA8YeBW1uvBPcLCKMTkbp/MVu5WYiFJZ3O3dkkmr3tUezJxo8bdEgH024wVmvTWMDWcuysGqYguinawPpDMn8JkNKQ4YHApGKvo4OahPARm+dijwvkJnFMWnoLgWk5ieZ+2TyHn9GmAzS6oPwE8UP/aWUh7znslAIMBG1ycw6dAnroRJ2KXdOPLjQwaeatbRFvsbGdNy5bidGOaN/rGg/VAmwbwDw/JRhFwn/+A5xj2RweCqg+oqnlvimbkbq3h5muIdlodJEkZRedGpzWKdm1ug0HuvYwKMRRXR2NyiKmE2Gd11FMGSBntV7ziSXC0T5plIaedn/Xknn1s8G/fMWAlbRQ1uCvDBFeCG3nMwDWA9qg38BqbU2PLoigSq4/ej94cNZJ5i81pUAy0FlSS+WjqqCya20IUA5XYvC3c2rwVQKWM3rQrzcciY2xu2ikWa5noMBXjbrSvJ99D3kBiLTW5YaPbYIHiqk4tNYqCeZs3zINd1Ep1MLQrtYxSWpeBu0WILjrl8lXGjnSg7vzMhf1eNfVf/8csgLINZ6LLVZWQLAA4xvoppjjiPmT5PwsNAQyYG7wwcJKVjRX/W9M6yexLH5cgd9Ujfvft0kmGPasJd6SY50XABy4AU8CFc58Me6F60IQAcoLasdJ8DKxTyr9m5gg1ril1qfRYz8jN7ZuvQgAcMPKQNOC5RvwOHnO9uVuajbtFjdWiAAaSnApYYKW0syQAMKUnV6eEAqGEEo53UR0YNFNjiwiaG0FKi9VZ9X7Bs36t6wf6Q58YKTI8z2qmuYPmGs2zaDHzxuiooAKS8sTOZBSMPon2ii+DNTANTXZzrbFRbDDt1nDYUGgGlBpbAVuILQwsNk8FrDkKGJjGarGWsF2BbrV5K/TnykbOKKQ/7kbRcD/66FjwdzCCpFCnhM0K227z5qhoIFg7o4zPl97dkof1ieUwbFQ1Vry8hvl+Rz9rn/zPf2OORJ+YpVYJi0q8sLgAPPFQxSTr/rXrtgZgFZt8dvWTAwi0AGw8hYnWkjDhvR8UvSfYz3c4wURw6bx6pFQaY1KcEFa6CFyrymtZF58MLCWZGRWBaUTJzF9+9Oiv/3746xetfn9jWaWxBiLgUdkcMMJU6uqzBO86ejfL9TwxrahXDDQTd8ub09GcNXSQWG0ozSeBaxd2YyaVjycvoTglqKsDxVOzrg8XKUNzEI0tg6WsMrjoV7zslzw/GCg9o5m6UbJeEsjQX9wadYBDAOuThPY1BmnaNwc0Nx+zJKlldDXUx1KjtTjRYczowRmxuQavYqmIgi28FZpfsxYNsCRruFhDQ9opWHPtNNDhtLIslYtAuZg3CorjbrSiMO5GRb0WmhNsNyx5LdSCLcN2IjpvePNAZ/PmGOoVdVuWmoG7pU6UEN1R7f6TtqWX64Lv5vVzr/H/9DvmE4+GspTwomQdMWvsE6JhmkX9H8ARmHvl4+QBhLXocBJPCgVNWwi8901ZDbpQ7gPmnQJdYpsw0YYB8KC1L30elLvmkgBkidOzzQhMq0rqvvJL3OaMn/+9RdpCO2ok5CwwUVkiWbs5D4TAA5ILTldt68BG8XjzWutuKSJoBu5WrKXe4FMBb4BXgFI9VUfr3KakoeAK+JTUe/FUwJnO1bKi5IYKk4zVUeTpR2wWYCjpHosYYlHSMXlk1NWojrofYDGvs4v26kvLKyiIK4GO3Kb2A5ZMJTRtSlB1rAVDA12lokYMTJmClRQar5JwrRSDUEdVHzEKwWKm7ly51J/DANmdSjBkv29iHp0aoj68qdOYW2ihKTVsVxBgeCOQ7NqpVVdBvSpS0rtbm83F7fK45LBqfILr1bU/Bn/Wyn7MpqsgDiWy1CrhUcGkZTZKxgph6B6o09aDrMFtbYzVZC+f1deextXZhNmXX2Ei0EHijVNgtBQJHCc5jkiRaDW6aC4Kbo6kDYxZEOwxAqvXUpQltdNr8QWgPCULi+U0n30ICFBvvs07+LZp7/jx7GHK6gCEIR6YBJwV/jc4HEjiSAETMLLIu3ANKZ0KQSeuUyFJIVigHRjDm6apwLXhwJQKdVIkMSNBQBTNNKfFXpGF0GnXIoC+FF5BM3Azr6kbwVFTyIwWRYILJWOLAjQPTPYgPoYNoBDkLZXS5k1tbiqpuSUDQwlPrLkpoQ4pqdCcMGilm5RSCQ9UGc1Rb8E5wknePqNIvie/s2QU0h13oyZxahG2s7NSI7XYsoRSghyDeYvSXJcWKFSJLTjjlt7dWrdTpNTtiezYwsvsKn2/p58xTcJhUJbhSB2uaL0GjT0sBjYL6xtMRFjc4rTTbVznTlctQhBoJ/CkU9DeihkC3/1LmakNgWA1UsikWKn+mpYRABCnUtK9uJKtbfDks0L/FTCPqwIAwTyIZuRuLUvFAXAbJdqyLG2u1cciDEZ3vFEE4KjTqPBUXKf4MfgkKeUWRRYSJQm4Vk/eo3jbpE0DdLeDp9AoKgA/1bkH6p67e4Ew1R30RtbqSJIkvYLK3JZuBBIUS1IC29fmrRjaKX59adFSqRSap2JcM4sNgm5co0xZTiwGOlxrwZINNqXbxoJRkWW0M+W4G62Uesj3UEZRfKI7iiWxWMFKJVYrgM0DnY2yDCwslkQRVIJ2eXp3CzZS5MjkKjSyYoXLle9W9HMuiTKboHVQdmEFO2hteNokReNreygmO4buDkRt1Qm80Sk4qyRfTjeOxsm5ym7Xfh/CFQ9MBlZLDs62X1CkAiD4AKhHUc3G3RIKyNT5604RCnXegmWbozdBTK4xlFCIiZskUFwnzdJkN8E6g6O9LnpFcJqnSTGaA9pa2irQuwxgzhhUFY1OQDMwlJKNCHgLigWSkWA/xOqNWG1+iZ67nKFMFdNO5WoNzrHNw3cvtbs+lFpo8xaYTxXUBou1NAAhpWIl5bgbrRSFzZ2wJDE4J4YNzbneYWVZwjx1xupYZPRGqZQgLViigmbgbqVQJ+XaGtZqTgvma2t8TODnHOP20weHoWyzqO0sqZ8CkL53IHFzzcWwAnulazpxW3AgqQ6zUgo+HHHNtB2Nye34GuNHxMvRvc8K+xdUcYb17m6ZpXe3dA0Yagkz3uCr6pWypEAtS7cBA4BIiuBMsQyUSeM4xTZlgmWvocFbiNeFV5dr1ilGy9pp/0Df0Ddm7uYjV3wCOUU0yEB71S6wR50rgnbaMoogUZHwmNAUsKDzdlHPXc61YqSZz10OlKrzVkSxazo9vELxKUNaS6CjK2F/rqBy3I2q1ySlarABC9okoa5OrVPCdmGYo8F+WroF+zGwmundrQt9CBMxNUU22YyNFa9B9BM/YyTnncGjs1PD+ogCAHyqJzQO1+GK6Y9A/+RSLcesjn4Cc8x950vbYiAzf5mfiJdr9Ty+ADhdvQ3EmwdxmKBmmpm75UGFIMk69VBHFLRrUUaf1GQqx12bFd5IUVe8sTYJCcZ9oblpbjk5qLTYL1YZKDTR74EBoTdE1QIAUw9GiNEjiuCjZA2CNkkcvElwIDxVQC3NfO5ykjdvcRIkI9hPzVNo+QiyBzqCw9VozROi3gg6bxZb0OkUDc/7Tw3hqqQad6NiHkZfTznXkxd/HaMbtYxOc9SDbiNBueWrM6wiyZvNaUER10mZJGG7fFwF0rtbe/Vdu0Lq0k98y9qP1Ucvdr9m9vfqcl4NToBCUFYrvFVCAPz1SMWES3/ZX5YTeO6ZiS9dG8CMBZENqrxmHgqYR+VwxAozmIsniw4DLhCc+sS1Vwiilom75dRSfcAwOoVAR2ClHEsdkWlqGsaN1XBcQqPjUDJDWDSwrSBokBirB1nwkQ+GH3YNTRIY2wMDvA+jLoFqtBjAeiUcLZZym+TKimhgtXqdt5nPXc5wSZ67nGumghJYwVQwmKFDNNZw8IQahLrnYTuKws3F/hI9femMu1FBRT2wpph21wWgBAE2WBiZMrke7G0VDcR2FptoencLxOi63YYddeTleXl9tFziuxnZTmaK0QUdjbLSRYUlUhfZQ2Nvm5wUCLQE3oSC1hoC3/0iXUsQohWriO15WAbwDR1IKaDODABv3pwExdK7W7FS6JojOphXAh1UT0KbG5OcMcXkxVPBOd4VAhTvc8MGpuKIDi5orJonm7XXNg9PZZlb7NQ1CzAMu8eRB0qi6pAHPOSZGqKAqC+d5iAoAhPtTHp7WKoF0069qUTFaK5gGMlKpQzqakNRoUWD0oi1NE9OK4ApBpQ2JyyISqA7qF2r+nE3Gqt6Lc2XheZBHEKjqMsiM+LePNB5vdPqmEp4/Arp3a1wESUQhSrXtrJeLoWQnc6LB4tRVhLeSlVNATrFU5QkQMLXNjwSM1tNJDXv/Ze2P5dZnYiYh6cLp6m2m6De+yBorbul2bhbEq3ijA6iYZYl4ainTmXQm4gJL41idSUGGpaN7r2XzoO1NKM/hrcgQFABiowPs4L22ooAL+lQqKkG11IoWSI57sQoUwGaxyBJBl3FVlAkSFoajqqgGGX0BsVSXUXSJXrucoZC8GZiGOBjqVo6S4S6vQFGzihTzO8sgYEBGMWKsP006OnryRO0K9gfk+pRCS0nhaArCCaJ52tB8aBIZ1qdsF1eNb27tYmuLiW6S9YuVuHlbGakcxxXwBJfVtoRKDyR6Ir9LcBuAZKCU5LmJJ7wKnIRu/CQbF9Ftfb1JooiZnsHl9UCpyu3AeKcM5e4FsQsKIBl4W7hGhQTxZeFqh4UG50Lzmia5ba44iXQrHDUU5l6LyBqpGVlUlEjNx9ckqO94lp7A2sULbQJPwO9mgHjLxAJeWaYjbqIJCTsFc2DWtHqM4rNDMoYnGwP9suMYmVZaHhQLLliYAtKLTVO6TCUoBTN0z+JGFMDUGMLTpEFuvM9fSnH3WilaFSKeXryPShBQHMwsEGfb7oYRpg50BnWEbQjfDOzUmpM727lO8IFITW79Qi+9FjWa6yOQu7uvBKcjD4vu8yUW2+bTQEa2QGa+AX2yhj4i0PimTzItVUhcEWzLZauTjBmDgDeGwIROwWW8M4v5l4UAO/xhiAgFkQzcbeIVG9za3MbvOoaEkRr7FrpmpOERow07mmNRhoWgdLmRlMg5cFJ3idHhcAsTRbSMmFC4UXIY+umQwP0kQEAoNGKwuIvlte9p0nQflKiZQUkyOXjKqZLD3tvghrqtDhVzJJJupjnLmchKopdu5jnLieFOhwUm9at1TIw7kY70y4cdRrowMCgLG2SWGOgY2Yi3XU6laBdz8cK6undrY2McJM5VIMSsTSTyuYrrAuWXfDKbCS8SIb2aqxAJPZTkoRobSbwRkkUW9njTZGuY1Acid4JCJlH5wI3CtrtVYHggganYIkNEc3A3fJaoDpIMvDR63QKoJJuIkLygis0DJs1XUwxFdc8hFFkIZMKvXrYdeoVRTDN8JqpWtZUOyrQL/w78oo1gJlmOZ6TBDVIrFfXGPiYderA1GtsnKfOo+c9a27f+7zfK636nSf2xG4PDJ+7nOPaW5LVVye+Akutwz95pGZ+Yxm9uZ7IOe/dxPium5ibOJvQHkw9XdRzlzO8+tJiK5UyugpKqZSlKeEQLsrFvMIDeGXZ71tPfmte2BY7QR4I+pK+LNWGV18WAzACw4w3JmXMg3ahzzdKWRrql4C71R1lI35cidl9ORrl1AQhA8fF4J+zVbuvlK1TgIPSUCSIvWy5rMGd2JmMRi7uau+kPGdbk8gX/qpdczg0FQmZx+QCGwN3EwIqYOK9oAGfbLMM3C3tKMJgIIrEqh02D46muiCjtE2zrtEVaISGgbq2GcJaE1nlQgZFOxWn4dCiQO6RLORQeDPoTIBB2AtqWIh4TlH/bWG+f9oJzVnijOMsedb1rb7VWccZ4vV+1SM3+hYmHwmit1k+8Yqfr/RKTPt3dufzhD1NNlt8pgt+qd0vZvkP9GKbhRarwhfezt2vCkDdjHzXTdw/+Khtvr07jkGh+VfefbcItwi2cv/jL98i3RKwLXCzYmvgFuXOsluV4dGlRaNFDBsunJD30QqUt+aNYn6nUSoYGBgI64j3JiulrQaK4bTpF0UFCjWoIJoxGDaty+ZGKyBoYHK7Qgbulm6wg7TJKaSx4qywWSR5HOfBsVA2avd1NeCQ0EmBoUigifUHhhEwuOBQrBo5f7sqexJ7MIckl3DX0U82U3vK/j5EzK5urqgDTg3Yh3lkyHG3tBNFvby71bX5DsY+rU/Ag3DX5ja4bnfZ7rzmtP0ftzvy/dV3tz7jts89R2GGf8Iu3/UdbwKDfdr18Zb8gsBt4vzX1/+D7+DW53G7Crlbz3XVr3p4A5WrtfhV570/zQoj5G598R3c/Zqr3jUvU/4xO31H9xlyt77Vp517meXf+hs8/n2G3K0HnufZt7g9Ylvstrj/tC3yX/+n19oa73vcKXK3KsLkD/v54FSoBcomnIvCeOOfW9kB2NOmkSSEv7iU39vVI/5FtohVx9JVGj+faHecLvOYPGCh66VF3AsAQ5C7pRfGqbpryX77/PTJeF+4bfoy1nG3OmgLAG7ZHAUnbc6Ci3dXNzc3t+/uax5vNjlnPXfrix567jvRVs5W4TfdKvimf/63/5Tf/v1vKvmYLQu5W6t4b625ibPC+a/f9fU3M29gXhrulp8nV2HnHavkefCXrTn/+p/fH8/AYjvn+kYnOGd9vXOW1zvnPGs5ZzhrPJfzkmcNb/1NH+tWQu7Wc2znq/4v0/4NtsW8ux+2VS3kbvnzyo6IQ1bOVnW3siuJw7ozywwci7LTKjulQwCcqknFNJJbigSPUtBeHwJv0jnpWgPJXi5pD0ivLW8M3BMcToYgd+uM56tc2XHjccsR5zx0rj2va7vnte3z2u15H5zjMK8T52zVdLF13K22oSkCrcjEMq3MOs47LjouO65yHeue7vF7NolXGHfr0GXvdcTTdc7UPF33Nf7ymRqv8ZfXSN7gff51prhbV/q6DbfGeY6QMzxXkDPKGfYZjihnyJPlm8oydbcGAPaLzl7MSi/U6oPtrOSYpEG7WkhJ2Uq1vZ/or9We8syZQJd5fCGwMWAP4HVocLeO2Y6YHdUe0R4x7pG9tbZbXatz3vshtx/lrvSx9Jm0Nw7DVqwbm4BMTTbjP4PWdbfaYJcAdNbVZK3pSrqkLqhzzjFTOoX98orlbn3n5z+Tb3+7oe7c/O8+G/eLKshj7Lnb75GVwSCX8DVcrzpWnbJHZ8JlgbpbAZM/cJwLTkBZaJUIUD0NAWCPCxJKDhagwV3VyAkVmNn2IgUdA7UWIdEuwIrpMQeMXFQBrJUdMI8Odnfrbqn3qvrmR7TPe8RwxHieBHjUwv3AN3ymuFtf+OzZxtkjWvv9bf7/bLOfnfaz7/c+8H7s+bm37bbuNugmJfXcreb6KtAP+hdR3K2EF1KFB48M967zyEeGBo8cdapZ9wijSLnYUbv0p4GZ5YqrTlSnuZJutqvJnU38ru1Fr2TuFimD7exgLfSJWaiwaXfd1wKUERLKshUTE43FBDVhFkphzU41kSc4tbPdEXrM+WUcscIUyrXjvU9CCIPT3bqmn7y0mX6EqG2MkLv1ec+/v/rgC4Bur2R/0IGAA7KHj3rL7XcWd2s+NlP/k4VxSqfSDIhl3a1moeMU+K+XyuZuBcpb9D2drVAvhyzexifdPGNXMHdrV8nAeoxJxjVXQdnk7Z6lSpWzyUAebtCQNERb69kpb8X9u/A0JQ6ZjUt7vKZNXNBzp5xdDKwWH64gFZz5weVuTYh5eXvwkmb20mbmMy9rZi5rpi9tp3cMI3zgmT8fs3ABBv96w+eZxs+BoB9xULBf3ZfaL9nEuAjuVmEYHsq6Wx92hf9hcOgJ0rlbSaezr7PR2ersKnS2nRz11Ki3TfCOfmN360Lu1rMt4L572dPK7jZ3tW1Pa39nZzM//kribjE5h4rtNFiGsgizI2UrSz1AxWqDJELjFgJvmoJOBYE7PNK1BCd/BWld5uwiYK3sIHgGk7t1Vbf7m1z6xSXtzG/bKxYAjCJbb9vveeDX45XvJeBuaWERjeXdrU6kOcAw6B6ldLdWHZuENWje/Gv9x/12C8AKZ3eru9vd08buDvf3eXCyVwp3q0z+DL7CfgYsg7LUsX2ciQsJSYOY35n5RLXxKYjaiRzBRKH/ZD/KEkmz1dcIaBjSa7M1sgOCY+C7W3tgXrS+e6cUbp8uNLlbuyT/x//5/AQMlqh4i6ts9aUtSXmLq272O5tdZXNSXcLk0nC3rEawwsq7W+1DSwC6N4MHYd2tkyPeeoUTQ4zHBxnHVSPAXW7yLXzslcLdKs4B2xnZZcbNFKRWMSQRGpYS+sR7nU5JQUwT2XgC/w874XHz3vNmfi7rRApLgJ773tnD1jZgrfSg4hnI7tYesS5q7n7Z6oELm/s+cHXfhev7PnOvWGemi3/Ck1/Xhl/h6fsf3WBaH7HBNRdmlruFR/0wq5V3t9qE1gL8OBgkdrf8tlGOX+enHr/GT71pmo/9rLVgg52t8dV/P3s729vJnk72dLmrtc1ily93S3eHu9vPDH6vFcoinIvSguxMWpIIXa6GgxD4UiiIuYnuLUzLniypCvxsxz/2n9mf/9e2M0VRMHpOz51yYTkw12FunuNcz9iB6m7dp3qeffTWl60evGD9wEXre/ZIDoAV2rt9Ov/Hnf3BByV3KzgWnbLuVkttT4D3BjQHCt7Zc7cOn+Zr/HmCQ9M97ezt5sfs6eHH7Kh4eXK3tgKWLHMWrIGy0YIzt6wkETasF9eJfBklVpqoNb/PMqPfbHjPTnrTqmwQ/OvC13juSdEJKIJEewBd5oJy4CThUcAPWHfry1/+4yE3fgasUP4pYf2UsHGK3zw5bJ7iNzbY1gcxd0uzwkHLulstsKMC/eE937FHbvBOnrv1fw6f9dhVv+OxKzt+1XN1Adha5C18wq6WLkvuFlu/AtuJYDXKRgubSlYmEYKjU25BVJukxCUTdfRb/Pu3dqLtF4X/DzBx0z/Kc09pnWIDc4Bec5LgGOAGlLv1LR5YP/fMds/q+2lafj5G+RmdC+5u6euxd79yalg71W/cuNnVXjG4W4VnGvCy7laT2DkCf/nd3rInbHc94G6dHOX4JW+97C85dmknBh3e7h+tSFQm7TiTuKXYCtvlxN3inLtjPbmzZaFZYa5ZSRp0gZX/uoQ5kT1YdUBJdTTEiGqN6wBMwvSPG/SYQ9linGgWcCBd5gINcLLwKAIDxt26RXu39H2P9Nwje907O6dp8E57v7+j3l+XIXcry53oWt7d6hyaAizf/izf0sDWC+7WS54c2r+a4m59vb84dsG9/ezrd/+AewfY0czlwt3i7l+B7SRYDWWhd55VpbFCEuHU24I9RHVZKPGluVMdTSiEbde0D6p7BFJYgum5U95/VQNwouAo2MBwt54rfT1P8rpb9v6nt5oBbOc9SuE+WvF5sqbPY1c+lyN3y039fSjvbnXQ5nqbAZ6u33dwg5thF8/d8ubp4p87wmQQcreoBUy58+BufdWvdnpCgG0l9k12/2T2T96efjYHGwju1ta7SwunQ2/IOgtzcw5iygzQriEAQW0gIoMLspWs0b389o/prbWCzIDsFJ0z4XjH/+PNydU+vGnvy354pHAqmjun5875hioOU6mry3gXUAaGu/Wxj/x9t+QNm1iPEt9HLz2PXvg8WuneNb6/8HLlbuVASZTy7tYPn3VPR6rA47X5bm51m1TxlkeJojUiQbTlUHwBm9ps0Ri9lZCbJcksVgUrNHwhQUY1CI9Ow0pSoOMK42690V+59Zy3nvXoOY9fYo0EVjh7ej2o3TSJfL3/3a38V2DZyRRE8SQo2yxYo3KDyXKmnqynpWcA+CsIgl/wV5+QBW+YUxasXtBPzJCpoqtbPMrZ1KbNvvRZ+V+xMYHn3kY8t8GPz0RHKhsBoj0wXaYvYJVXWrQBJY27pc4AVa/BFFDD4VW9w9rwepL7kcZO813zSFedTyzu1vzR5bpHT2AcPpFxaBX96ET0ViPH+aINt+ldbOQhN/b1rmG5knedrO4M3B0A3Ko7TaoLqMPYZRFV9SAzNMmIJM0SlUxdsgpJpiIImiD5uQtTuFvdFp7Y4BNr7Kpmd40H++BJPuCmGzWg+fRbCBTRTteYRdSblCZR89E8lH3mXShutGWF5mDw/OC/S+4y6EY4TSWLXjgNVq8mSgc9Nh7fMzDR9sGnkW7iTJWtZG9KQkSszv9nHf+5yJZjlutw7rNznwmdGX0CHOcVD5rC3QJDUSyoodINCu8SXwno0Wl3t+dlcf7Ac+cPPLvdeP+HeHy8mHJ+rG93a6zQVsLdGvjnXcO4Stku2KcAThpOWWQMB5GKa1LtoUkTGZ2oyoDISO1o2YVxVIlopxNdSc9dmN7duq7brhpuupEtkbFaNA4d4VzC/pnbVtHA9Z+ABQNgVxG94Hy0CEULJYQWBbhR70V80xc+AAU+oVGU3G1wUSF6UuYwu1voAp3SiUTtMG22iaIaom+A47x0uDTulvrfMCx0A3BeNVjiS3Imih7Qe14256R7bqabawXakfHNfb853eGvGndrrA93q6V5yDH+9a5BdJNgfyRwm+WYLopkiDQR6YjixBwRaT0i5kSJboquoFGyg4DMQZKfuzC9u1XG5wMb7Jn/5tAB2NXFgZkcmOneGWwJ9dGvd9Zc5cL/WmouecMgJ6cxWjbKvOWaTSeKxgahAeAHXAY+RXy4U+WwvwYpyNghP53bAar0Bm8YVkhbqmrQB8lZGnfLK6DmSPaqKIbjcg1np3l2uhcVcMQiVGCtFLiWuXstc89q5r7J6PWiUb+71ciNf71rQGUTemPBJZx13Fp30mGrIhqHFGRE2liJwUK7EWgja5ggOiqCumgjJj93YXp3axkO5rd7LeEhez1+gQg3MPZN4eCNHrjB3X3CKoioeVUzb2mLEiBoUVKoWI2aXSo17pZ1863igy8KZwEAMtYo6+U6Vws8t1eycy+Shb0AorB8emWV4LnegFXeUUjjbuFMUbw6DBRMQXnHyXR1Cgu5bFCzQcWagJrGssbdatXvbum/3IVaBSDG2RYo7u4VgIekeS25BlXRRUMqqdZQclGpimilgbA/ZAsHVj1HaiV3jyMisooZzZU57q2pkEFdqktmBafkNWQVoiGBZEl+7sL07pba3DBqtLNVjhzjyFGOHOm2QYGtDR64gbs+7J5JanVTMdbAf+JLQ3MCVmKMJvMubDRLtIWNQh8EeKnN9f9YnChStpeCRBattWyQz7f3FkEl6A+YTGaRKwFJ4245I3lp6p3WrIDe+Bo7mt2gqo1qF/Gp4rg2mCpe5E+2AgVA81ZzLH+yPTlv+EJb1iTkiWC9a8hC0r0h2yXA4Wrn4FIvpEHSirCCCgaSHbQqMuKgnmFExUnMnSv+cxdm4W4ZtbSugEGx0yMcOsThgx491qqWx3lrD3eXa8D1YNWaj/bMQq95F44KPuI8viAvyGcJCYtutsLLDd5HmPi0Zkax9k0C1JXyHgBtozowMMByfqKhadwtxRSVnt1gU309PI4Xm+sUmrXXnN6BQZ3uViMmlrHBIDjvGjQpZNmt3CkBjub8XVRVhVUWGnFBl0ZSECFL7LU2pJItA4hIW2rycxemd7e8RmPGPQNi/KVbj3P4MI/8/DYXVDEVRa5DYQnd2TBKoSW+CU4YbSllaLTQgNdbfDvwwaKEPZo0E1I5m3IFWeyi6sBgwDI3EVK5WygohrKpth4Wz8PjuaoS3vq0zz5aBXMG6K9FqnjF3tyt2g/kVWBhUNiTNQ/kGP961xB7UaSxLWBPKHBcd8oh3jFCgirEKI5IRRQdERePEJuiDe0iuCQ/d2F6d6uW4G/a5pg3wlgxajEp919y3/TgXdveaWyEmAdCK7RGrRi1wknpcL7woaHkVijLYggpvt3g/0WJbWtpQdlKMg1lOqk6MBCwjC9YKnfL8xte0e0t9aAoHhLN1dVAB1oblHmpxa4P1jSoVyyod8YNhdcn9+luPVnjWBPv4lizpca/3jUoSlbNvk2wLwQ4ZThp0mr8GrXseGrSAHAl9+I6gq4xlJYrEoAnUJKfuzC9u7WcuszRACP8562IqZen//Q5NyE7+9wS48Fue8u7sGWla5TNRi65NlweW3kLNAT4KX5AkLBC5447tDDPR/k6aZisCgwCLOUZXEjlbqmh+7X10Lh6YATn5wEdmBuVPvsoTh+aaQxQMGqu/Qyo091K9CTdrUSw3jWIoAht3IweiAVOO47lcIMHqwytSctUQVyh15aoWVrQ7qgRLrgeSH7uwvRxZznhFhssqKkEf+dJKXnTW3Z0aEe3HuJNN33POUdy0ZXsSLJbX0YgtNBWXjZVmtIMZeGDs1YjWEr2KLnN4M+FCK2L4QVQsJWJwWBVBQYFTYORyt1SuMWj8Q6v+iETtNYH+9zjPX2YX5M8uldUNPEFjJKP9elujfXqbjVyMP71rqFXoG9OzO1g7CYGnCOO1EDoNIvnhHjMOoIozEWFGJ2WTRCRPlFEkp+7sGZboxLrc7eM5kwnTcWR5uprTJVyLuPwbmYIq9hX7dVvc/aBduVT92i4Hs2J2jB8gcMrisfIHYDQFN9m8AXCQyhKpNEANqrFqVXBXCGLCKgBkfgMWMaLSTp3y9Td63t9zvm+wtvnmeBzj8tcF0FRQC2YAonDQ3MsL1BaCk2fHFKB1au75Y1/vWtQBXWlShP2RWyVQDxc69ckVxoj4mNr9K4CKs2JrVYkjj0KCWGZkp+7MH3cWV2xoT0fYFMbS9d4Pq3FEJXrrN5eG8/1ZbNqCpeq2a5ML7uRCw7n0IAxNIIUrQoUFd9olhTFaAtaGsfg+SW3G3zExRAzs7VyHlADfAB/ucDZoOncLYft1/Vtzazy07vEbgrq0cRuonDDk27oy916slF4TezWUnwz5Ma/3jVkBsjNXWMcfY9yhwA4Wuus5zeO4vgk6jmOSq9kIuNEnzQkJ+lVRB1Peu7CLOLOsqoeFBsMKzXKaK4SFOO612LfsXg0aw/XKftr/vDqoPH/E5gGK2iiWpRNCtGGGID5aB9M4Y0UeMBbChpDVSYLnKkKNrlimO9EO4pJve7WAT0XF0fxoDXHNQ3XI9pLhzl/Q0QZo9DYyGMjD1r4ZmKzGKuNO2sQnHcNQbI2xjpvvbcdil1K4FjOGWcSqo/ZRxRxlE6bNM/tBs+SiKKStE9zRkl+7sL0cWfVEqbWAt4mQaXUIq3IJNFbOlpM82DFfNZdZNV6WnmBSvAyauJ8s1U6olEcPYpvCP0io+hG4KsFjb6QyQPUgItgEVuP1ududXZy47t5i6krH7F7OGxSNFwf1ECxmvfVq0/slNgybqhA+4w7q6VFbQ/gm2L8612DAJIyklFpwnbB3hDgpO6kSXBBRixsf1bL0I3BXhCvvbCKhYemic9dmEHcWeHfsUwZ01J99OvU59OurLF1pt6syBsU7ZhTnGA0EAutGjnUj3dNQoOmtdrwotUIWRwfvL7imwz+WdDoYGUWrqrAH8NCVwNSj7u1rdnPOJ+3nLF8m5fDvgGn09neGgvmvKIK1GxaUKzm6wjmqjh9xp01VnhH3iCiCchmEJx3DXEU1dg3ggO3iG8RBpddn9AQx9hw5qMo0jdorubmYxwVT0rqB+RO4HMXpo87y0ZvbtObLdapEWI20WVuQUIMBkQaAb8roS49UFvf1KFOpTbvwrJB7uIaPCi6BWFjuB4QZZahKvAzsNBFxfXtbm1u5JNO5G3mLN3jeztsdq1/vdvFW5/4cfMydzJyt5re+eSiaa2mH2TuViraZ7K0mdyteiC2whni1np3mtyt9HFnqV9i7tZ1dVatdv3jssO1+Vk/2Fl9u1uhovimHMoNMWOvGAKpeUt+qgJXgD/xeFAA8JgLO9v8tLN523lL94tIt9XTQuqD72/+kAdbzhpKkYW71TNkrMgHs7sFqGqD2dytb7GFAavEkTrrA3ervJ4aq8WwlkvC3Vq+1lV7mS63zcaeVK44VFtfcKiXPt2tPMU3IWo36Yp6KpvmWR2DKuAPmOdkoA93a5+WL7rrW81ZvOfPfPXpofVRzyfvfW1cF0AG7pbXRnReo+IGubslSE+W2dyt/7NNAhzJOk+tL9wtDIvVuOPcramCrNyWVYedJvcX9iTVlQf7zs+9W199uFu5IHWTXxQxXjRPNlil6lQvqAPjYK4DGvpwt+7+Pbd+mUMmNwTx4Y8n7321ThJVenfL4IYIdsPRpQ16dwtFfdTZ3K1dajsDgKP1zpLrCncLnm8M9JV6h7lbUz2zYltWHMwUoVWzXRF15YHak1jdePXqbkHR9Qa3EDD66TJBurhi5h3r4kQdCATMc1CsD3frpedweki995X64LuTNTKycLdAvTNGq9Ahwt3KSnVmc7d2SHYrgRO605b1hbuFQalQROWOcrem+rhiT5Zsy0Se3Vp2vOhbr/Ze3S1fFV0H1IBw8Xvbh1r2wwDYYs9mBUEdCEYMYLa9GvpwtyaReN9rnBlGNu5WYhpK3C0gNvqZ3K2tgn2RwEnT9153uFtLK10rlTvO3Zrun5XHM39h2qlOV7Re3S2vffP3vytWhKGh1khlM+s1Pds0ixGVYBxYucxgxFuW7paCDVXuVnMBdCZ3azN3fyxwxnIsZx3iblmU5peAu1VBnT06K8+1GcPs1d1SXtFVVjCAWJ29aQt7dGygD5RNVrZSPbkpQNSCgACu+QsOAfwRC51dpHe3XGIsQ5W7FcTcZTZ3K7js+tax1jXuVqVYCnerg5l2aO/uVhgWXQ98uxiRUiP06/ZN+upnKEzvomw9u64vqagGwwFO8w8ETOjsqvfeMvcBO+uQmXTulpH8sOL1Yehyt5jrSGM2d2tf7FYBvNGR0fL6xd1q5s1dmZG7FXhF1xp8gxiRnj2rnMV0LJRJA/UgpICDf6LBBT23oN5u2dzZuWxq4KoaUrhbqHcW1JzXIc3dimGu2dyt3aF/FDgyes9Z1y3ulnoTbWirEdK5W5EV37rpfOWh3MKrgQ8UMVjXKZQulh4W1YMRARzyTwfGA+PrPTfNdnV6nLef8PyOEwXW724pFhS1MPS5W06UrLO5WzsDdyqBY0k/Zh3jbmE5njyQ1+9uxQKq/iwe82uxZdoTmqAvxQ8JGaS30LWdJdOhUAtG4Fwekzt87h9+qA6Zfa4RfuzTO5e7J4W75ekGhdeh0d2CpirM5G5tC9xTEjiZcqreesbdaqGUOYG63a3i6xjwyI2ClJrfwsbhwPMVnwENIEakbe6EZUh5e7AGorsqjRewqRZJD48qwU3BPv9Cwq3e9U+7XFXcl5nle55xCtk07paiQ6e7RXhN4kzu1mbR/gaB2+qdyFjPuFtliUJudbtbhZcz+perQz4c2fX/B00j3gReigshVKZ31Ta6X/hc+Y+t13K2DiphuC9w9A/0Lj/7Z98oXnt13mpPa0esL+6sIdndElUiOpO79ff2Nwl852Pjd33jbhEghbu1fuTP14d9fZ36/8KmCa/DwmsEAjXvS2kyrb1Uvoa5NFNVIBRg7988NKk+8Vzn1ZbmdVa3uuPOGpLdraCdmmdztw40bosAzjuOjLHOcbcINe5Wq1mPuzXs+xtDvxhR/1cQXZBdeKXB1UTsz13fPCCL9dIPqQERAWzmv5sa66OO92MvNT1vuDH1x501NLtbjQH6cTZ3a2/ZrYrJK64S6yN3S6Uldbhbw38aDX5vZNf+GcYCvQdEDETM5YrMMJSOakBkABv/u/Gzvk/LBn/fenfSxZ1VPrzXwmVh9nbPFy1cX3ae15f0dXcf+O6WAcrdPaNyOOPzbdmhTHj0Nt7F3dsmpYELaHW0X4EjeQW3hsjXu7u/u7BAr1H0PpXtgmRX4B1V8SACp8tsbyajvK4c2wR1cGCT/77Dgfb669p7nRk6sKSLO+sjWtcC7/p2Z7MevrSqmq5zhyJ93d0HvLsFnLs7KsBJyxfY5n1GhJsrvJv73RutZa1HUg5XuS3fDuX+EgcLR7QzZAW2BsjXu7u/u9CgXKiYmNpnZ86K3yj6VxCGX13GCuUqsji+Rx2wyf8mYL72imG+kw6XKu/C6zBZiS/8hUX1HF7gSuWHse/uA97dAs7d3VdwWdcQ9Cz1Jffu2S4O9oS+6we4a+Wc83zDU3yDU57Ubub6Cnqe3KV8iuk+xVS38NNfbXIDIF/v7iV2FxpFrNNzPxmRX6bXMDsnp8zJqg4abPyXKiCkjTsr1/qOuEurvK8Lry+q68sX9tKXL6t+CPvuPvjPu1FkBY5or51/laN+7eODrZK3fgNf65inrefcAOCnbJd7lw9xl8YDuHy9u/u7CwtQqIDrfjkfWs2j02sLMFeRGRhjoA4OglSBKePO2mo6tsoXwf7qU6F6wKFHTl939wHvbgHn7t5w8Kr4M5z3y+xnjWS2/ynv6iEfuXUI8vXu7u8u7IcivUbF90z2u9NtMxSKqc8H4i82gKVjGgKSKu/CbL5dfFlcOgz+IvaCTe0nF+nr7j7g3S3g3N0FBe31wsvcbbAvtI2zbsz2v/m9PeXewkaRr3d3f3ehvO5WfxUNuiCdJhfkAqL4SwGrHlK7W1u7Gfe5ei7YVRssXOydH8K+uw8B591oVAHRztvV+jk2cp9hb8etMB+j03fxwFD5encvsLuwD+it9PaaGEj4dBo3yjl0xV/sAO/FIaTLuzB77Z1Gmfj06VbfWrzCu9PX3X3gu1sGKHf3NUjrVVFAHpLymddw3o3b8ZsF7/VJD5Z3J/i9u/u7Cws9FChTLv8sdGE6TTjkxqf4iwnwU0jauLP2Ojb7MBVVVt/VNxf0vbf2fqavu/uAd7fy5+4u2ckKnN6rXv2ax/3J58nbc7/36Wb7FmadLF/v7gV2F/bJ6m7dUb8tXF5ehJmZIf7+ESy7aHAhXd6FKeNLfLtvXhPbX3bK7L0h7J267u4D390Czt09ioKgsgKT240Dj9Tiu3/sqHy9u/u7Cw0wKr1U8mf7LJ0jOR2wRIYO+kaFbfxC/I2BTFkHBvR01eluhc2utbezymy42Cww1w9n390Hvrulf7m7ywqc6oh2mtunWcGRzNt3+wu8rxeGfL2719hdSLlQ7H+1/pk94PuBguzQmLXr15X5bVRBfJEnbdxZt9q/I9qV68qGvbC2za7yzvVD2Hf3wX/ejbIGodqjCBfj9hd5388dla93d393YR9bC9IFUUb3xMrhZwAONPMXHWpcQGbFog7ETpDE/o663a0vqx5QXw6aVNy8RVhf9r5D6rq7DwJ3S/9yd58OfAXnn2NTFxVx+Xp393cXGvQZUCj2Vrn0kqLlRKN9MXtktYk1EaalCpAKcQlqgkD97lZDtthrI7P2Or5oX9k7VOWHse/uA97dAs7dfTLki8lC+JrHvKgsvXy9u/u7CwsYBcpGXzk5Bhaki3BM81XabJEitbJBBfhj8PcYHoU07pZ1NPV+RVNrG1cPGzZ8MSyKPPqokWaIMVqgyL0vNOQAUoQB724B5+6eV+D0iuYmsd2S+JnWcjEVreDk691d313YS9xZueg/AyvSR1zZpOansqO0g8qWwlUVNFsXaOkFAkIqd2tf18LsxQWbXd9K+HZUtL/8qPfdfTC4W/qXuzvNQVAE/wJbvds1H3a741TlqoS9uxfYXVigF/ojvwisQB+hIBtWNyqNjHm7sG5WNrXWg6oD1ADLAC29iOKGQXeLC4itdrUdrfUZV3vGejvXAb23p90bu25yt8oVku5i/wVv1klwYUmuXe0gW2TMDUMnjQIAqXvXAkQNsAIEe/Cx2d3jh0N3SybjvuBew3y+LZ5zu53rrNdP7hYlgl9flUk3LQBkQxHJi5+LY++eHklPlc8qvTP3aGYnqoANgI85OQaGR3crr+C8Xl1D2oPG+HxbmMWxefGbG1lPuVs7E67glwMcOJ1jHefQqHtGc/OUZjGiHmxr89YfxuHS3VK8KnKW+kan/QYnN8UJfIqp+71tXeVutX1ElUoHoVPSpKdJbK/punjkTvXQxguoBLYAD7/jXn85bGXYdLcq3mJTOZJ2OOOU2Q7FweI5UNwadMF+so5yt8L/Fv5pWC8GThz6J97eKv5sax2o36uoEDet7Zq2neUFVIRl8sYCZy7S8IX3+/DpbvVOuyq02FzQTsm2bnK3Enr+tx6mhOsh6SMA+OvQzNDuUB2SeCPNvfVIPFp3emVyt5vJBARAPTRY6vucXdOBcvNXda/IGj7dLe0Vr1dFO5XAdrJecrcu8H+gZK9KVvfKqixwwtjSG7YFInK7Xp6329f4uFP1yNQaLt0tp+XJVUHNAzmdN3yd5G4FPrnIb5nTBr0l28klR3CfLb7sAWHu5SWnDq+zuh2x+sH7+6PTGCbdrUZuXktuuV2dBEXQdZG7VfR/WucPmYLqXsKyV5W/ZB/U4LPFlxMgxP1UAa+7ur3a0hw0+gG7+wPi+rFh0d1iDWjgtKgCU29WrofcraTL/xHB780kG/Cis51RySfbAy/+2eLLARCS+9tAwRtuzGuvzmGLH36It140O6BnOHS3tL+qCC0rCEIRr+sgdysx1Pz2df50ptjAl5790grF/kQP3Phs8eUIuL/H5Oted61cUc3rTZldVcMw6G75Ci438AuWcxUr2qO9wvrH3bpO0za++Yn8dZZ59a86+3m9RoWzefDPFl+ORdMgQXnNle0td9nap/WtF87d5m0Nf+5WDb7ttap5RjEf1z3u1u4/a/dErE1UrEdv8Ot+rceCQrH3p8EDf7b4cgjnNiTdrZed0z76wR1TKBz7vJt5tzWzfdoa7twtzbSrU8VkBY70JTdd57hbh7uz/dHGg5XvYZ416AW/5gmx7layDdzk2eLLGRDcB/EoVIHrBrUvibhjtQTOK/T1Ji7c5y/DnLsFk0V1tGadrICvb9yt3XHrdn1cX9VNmSr7btgd/7fuJKu7lWgCH/7Z4ivrBgLzMAFBYSo5H/f0zjfZTjvKIZOfcNJ3Wja3o53hzd1awa0hV4ULVThryArMuklV6xp360Bz2/Jg83Ul7zcqhJq34JOZw26Z6OR1txI1GIj/2eLLFRDjau9A9eJuvfz8fMGv24/3LS7R5E2mLXzWZXp3tzLJu3ANnffaac3Qp97HXudCpzX22rW5DLL/77v79NytIlrJIkWbzIe2yAxwt+Sbuwb1x929G/S7kEiUCkyNu9X0BUURRbpNffsbuv5Q1U+ZIvhp4YZhEsde8i5MdKwgB0pB/s77yoCuHtqAeFCAuQ5+0us73uYgk0gcu/PnfMReN9Xbi7uVVd6Fsa4hsQdksiFTAYk1j1k7Sf2MvO/u/TwUblMtqixquU2RJnerpF/VYHdLwLlrUHvc3btDvwulGE88gSZBikiJeD9eAYk7o9j6ykNtU9ppLFixdfaIVsEsfcfjLkw0HfzLiUhf3Qp0dtO7u/ViU71x7OR5xzCdzsMS8nYLFj/9vLs6VK9klndhbpmOlpGhj1UGb3kSZO3GLINcgu/dXVQEFKgVag3zQFWk9tRatcHuloBz16D+uLt3i34XEiVGojQQX+Y/VxTXVrPjM/uL3m6z0YYya8RPi5ZnkqOM00vehe8G/4n8xTVAZ7fau7s1kdDe+RSf+e32l1tIO+Tu3/OWsxY/71rr7CLLvAtj9TrXHnIDcgXwmlPNaJ3LTLzv7r0oQEWaM2Dz9ba0iC425t1ngLsl39w1qD/u7tr3u7CkpAJDz6IKqcBIEamA+Otq2PbeXVEe7v26g8k04U9LN09niBOl7DXvwjtBqSGByQro7KTPuLNmMHyjrXzqp8kLTa4jFu/0IW81c+lzL+fsHLPLu7D3TnuCTtxEQOqdYIF2IJfge3efhrul2lggUE0qRTAt+8/dEnDuGtR/7oTa97uwAtIziyLR92wR91e55SM7Ij3UPe2gMX/CdMk6ZynTTpDSeyF2PO7CRAyMBgmMO2BbGxr6dLcWcXybw/WJ77Y83/g6bPYun9sHbBzeeMLSnT+kkVHehbL0SgYgywraR1n6UuZa8+g9g+z3507YXCgoi6nWVENj4gpZFJVSZP+5WwLOXYPaz52wO/S7EEpEohRRCrpxdiVmy6fsjPXv/3/e2K+XLHKqTyqoEqnAFD6WvcSdFY8EPymB8SywvZ264s5a7uHbH69P+rBlXUDxxB4//9rwOsNXPufCsF9XWeRd2ONB7SDQaaCjzlu+dL87ISJAL0isP0VVi0IVpaSit82K/7ucge9uqf/cCbtBvwujR3KiL/zhATa9a1e/aHsK3jnc//W/LRj79dLFTvOjHZMKCASrQGWc0PG4C+MR8G4SmAthWysOoQ53a6kbH3J/8tEvN58s7fz5Pb4NbzT62vuvW76w2FOkLX3ehXmoHmacV80VX+JQfZllQC7B707YC4qIclsqlVyRokXKD59fFFuorTTc3RJw7hqK/X09pf688BMYwi+1J9dPqb+0NW9szWvf78IKDNKGJApB9pR5xdO25WcOtE8bxdzwn1Ysq2k+tCOWFBKLCsg4UaowvuNxFyYCwT/IYba3UXfcWccL+PAnk8/8s/E5RvQOjGPn57f3XbU628EXnZmXW+pEYkubd2FeTiqEPkmnOdQRe7RrsR/z/n/uhKIoCkhJdcoOICqg3DZf0v/bYHdLwLlrUP25EyaQ9v0uLCsgeenLwwY3/W6XP2ud6e2IdkqFyBz1j8et/WqGmAqSsqn5eO4p8wpMiKVHQxLwg+vLYTwK7Oz0sLWCC4qvx92a55h3Ojd+8b8Nr7Z2nG0PUEF8ztG+9pY2x9k0eRdmqtc8BGCYTqd0BCkZuSS/OyH00mhwm1ZkMqNVhSqLULXuP3dLwLlrUP+5E2rf70IQOnNz2fPhmq/DtfXvVi1TJjqwdMqXq1b1WVIqWCRHigpIESowhX5n4QWxlOxR4EjEgttJYH4fum3u7BBLjK3L3ZqA5pVXjp8VsekDH2688Z3xwkKqNqggnqr0ecbnjGFMoaTuvAtjxelaptdhDcmVQAc1p542l0vxuxNOw92y2mOlhqIsiiJFbuuLzAB3S765a1B93N3Rvt+F8WAv21LapS+GzpzhsG5KBWWm+McTVn+xdJpTeVZgEu5WWUisgFjhpde4s0w81ufI4Zv8WHbApqZKGXfW2kHYIfN4h9d1aSmPSeaIFSaTPXO4zzHGU1V2YNaXd2Ef15BKZszQa5hlSdaalU77S/G7E/YCCopqne9VK9JYqMJ8nQ3/dzkD391S/7kTat3vwoNauzL7Fd/WXPl12FP57j8xyamWTvrqpDV9noIJNKUhUkjpqYB4Ci1iSYgiHf7eseI1wacNACSwOQGbG0zcvXKkyrvwib314Oh6wF8uKwOmMVzIcb3Cl17sLHvry7swa1CsV/LSqZqDYmPmgpP9/9wJpZ8HCtQCpjVMw8EStMgMcLcEnLuGPMJMoeVXIZ/A5GfD0LjfhYe0dOa5K6P2lPELh3q3VlDmSH9YMf27E5Z/sWxiTefbhuhDXkiPu1WBkSqkAlKIjWuORKKP9sHEDgU3QwaTs8A1jWWCQOq8CzfX14OjeXAUWxoAN8cpT3vpxZnPoc+8CyM1XzjibHMZctU+iNbYNe9aJvX7/767N2p7QaU0GhRqTYuit6VaC4kGu1sCzl2D+s+dULt+F+5rcFNk7S7miA5oQ5gpdvmEL09cdGtRSE3j0EFQKCRGGBc/jhdiIRJi9LGsrTtWogqcKoXJBdjcBArZ5F14Tha3eliXlHDEArjpTNcreNG5We1vr3kXrkHVoeagJORpHWF92l+C792dXpB5oKaKlCRKYzikoPMzwd0ScO4a0j3u7lfdWTIADK36XbiroLbEs6eSbqPADIHz1JkT5ES7TOPxn1FiiTAqMRaU+dHjyNFvOPoAgmRxfPBidcHWIIX5P9jUAEJ2eRc+KoG7fegXF3HIKDCBwCohzz2R559qB2aveRcGA+iDaB+rdsicRg5ANnf8e3efhrulqlWlyd2qQm0MXVpngLsl39w1qP/cCTXod+EhPZvjamc2+1tsswF0UJgpyZKxzBS2vArIx0Xid+ZIjNKQ6BEZr4DEImqkRInRxTV4xA8lk8/8Wl9xZ6V2t87L5e7v+/k57hvAw0w7NqrZqHaDqr71y+Lu1v4Wt2ewJYHDWgEmsJgjd+lEp3JbSnfLIXnho9S4W8QPga2FFCYP4IDBba1mX3f3Xe3c5W09JsHODn4S3CqB6xWsU9TqACeS2Ehztw7021lKVyldJRzsA2hDmMp1vsKlI+2gJ7W7VWih4wWx1t2KB0qmgm1ACvNqT8CVNdUvdXev2ry0pB6X4tlpXl5KFRe+agLRR4p6isbecuvdI9kIc7cOdLEth+s67dJwbQtAB9nZIn91gcq5g8zA3SpErPAVGHpzt2IVwZveEilsfhyd6os7KxN3a29fnZvtOemem+GOFoFuB+eRCj1p5b6llvarNrLcrX1tbE6yq6T2t9ltFvi+mZ7MkTBH6kwfKihZuFvjooX4UvJe3a3YvuD8yGHyFbi8hnrjzsrI3bqirO7z1WdPdkvOqwPdVs5dwh633NO1PI9RZgPK3So2/0XTb+2u4rouq1YBKhiLQ5kXkNlCOijJxt0qY1EIhRZ9uFsp/l8Sk7/AH6aIOysrd+s5M77m4J4z2S2aVS/AgaDHLt3HLPdY5R65cDcjG0fuVmy4wP/W/Mc2/VasBkCFwFRX50pYEs50fjJyt2IFxiPj8Whzn+5W7EDt38Lk8ZlunDRxZ2Xnbt0r82sN+wcflHuWUGAL71HiHq3UoxXu6z52Q1ugjR53q2vUdqO2awLXtP2/0BJID5RN49Y8iUtCneJqZu5WKRXcQo72FdK3u5WUpTi/LKbk2v/d0iTgoe66Y2Xobh0n7pnyPNnuluwemSedAN1Owc1hj1m+T9J0H7+hFWxjxt2KjzX/Zc1/8sJYV7S2DcC5yHemhDHwzurvnVXK0N0KPb3EkvF63K143SV7QsliXr3S7WG4pJz0dXfP0t0qD8y5R+o9sz1X6r0zFaDbLrhJ9SiF+7iN98ka2ykbpLhbnUWNf9TyT+03hQuJEQC2NN+pPGd4T+U9xZaU0bpbPhJ9BUZ+pB2I1udute042Bok8UhYI3wMLtEQNDFLVXesjN2tM55nGt8zjfofb8k9Q4QtuTHqTumd08LqKWHjFL+xydUZdLhbCVPHQR23bfyj1n8v2iTrhbk1yLVb7bnGPIpzUabrbo3n0rMaKWO97lbbtmAicB5HvVxG1lkjeAwuLqfG3Upbd6zM3a1zzmdOfNax/ceH5J6yKADLtX+y3zrVry9XwTrXvmtx6XZheSDhbm3v2F7Hvvb9te9rv73OlaQHQBVmi6vZy3e6+ruou3ivzXjdLSowRIkRosT63a3YtmCiQBb7y0dngDfJou5Y/eFu3T3xqNkFqwdftr7/sy9pZifEBKBdpsP1pr3Fl88Iy3fM7pw1urac4aDA3Qr313yj1hsF1jrLIn0JAwAsMvdhjmn/W3e++rue+xBtjjtW2fMpoFwkxlTuVtuOZDKrBY/C1+7qAhxZ1R2rf9ytnbAvWt174er+C9f3v/f+B7d1B6Z8srPtmFKrtPu33786vsWXtibl9a45huzgzd26d7DU8O8LrOrICzfFRtsAwERyH8lzNM+R3EfPc5RzfmachscdK7YDKzAQiencrXhTiaZgAkhj5trfvtj1XrigGIEs647Vb+7WNcP4c4/feO7Jay9YP3DZeubqftcusQUAxik3J5Utyc6/t9HVdw5DZ2YLd8xvr9TuwZS7Fe4uVK+juI6qYKGjLFj2VmRhETkiNTOewwaeMOhEFjnNjztWiRSkdrdaSw42hVKQxrBR+jScXwSZ1x2rP92tf/eFy8dfcPL6lywf3SO5HXHo0mZ2W7f/1wAAo8i+5rkff8PL33/ItS8++vYH3v/wtRetp06MMzuYcbeCzbXs599oywWri3SiY11GDjHMPDNlYbky7kW1R7qlZ08FMLrBccfKiyzcrbZNwXSBPGaj7Gk4v6j6p+5Y/exu7Zbc5e3UJc3sJc3Mpe3Mi5aPv3T56E8UdsSPXNF+7iWn337m4c8fd+e33/LK7776uae/8v+ee/C1rzzq1oefev9tzzh81QuX91+63n9tHP64xYMHd6stL9TH9fKDyaXrC4+YXveaJ4++2D93RXWyh8YAq8w967tqptzTambVzOZIqijX3dL4uGNl5m61lh1MhfMoymEkn+nPCuYvzU4418XjLmy++i6PGMk9U8uuqTyvqe0utMr/s9/+/ST3fTrLQ68t+cSrZT/ycq1PvLj5x19a7pk796u+H1Q/h/U5Zneb87xXmfLdNgbbObtFe4MOym5U3Rw9d4nvXUM2I9qZBr8vqFeN/dSPLa6dtxgM9fQW+4WooKVBqbEVamxuimIxnBcNZbMbd1hxc/6Cv6i9FmwKNUIDKytu6+z8JArxPFuYM616xr1X7dGrPc27u/TqbvnX3ahB6p0wgdrKJpc3E5+g2IdIEh29OdGV3C2pZKx8x1Dk8weBFnfUkqyQsncXWlqvO74GBn2+B9R3z+prK3pE74WOmL3qmx8zrvkxw2IOWxj7Ah6j9OyT7AnaK9kl2SPYHbBbsJkR22RI6wXJjoKxBrXYcouSMmqogSW/4Fqg6zqSbOp3nN08xh1W1BbuhVWRoZASHjr9mlAvqsVNv5hDIcys6oQrrjrp5uE+z151x6o7Xc38UVN3qzv0u1D/eie8MgXm4nuW7ItimAgSmQFXMOExwZHzc7qSu+X1AYWcPV72jFw9R07jSmUuf3dhSQ4kh1bgHHjM7Lkn3vernVv0edXjxlNuZ5z/5SozfbcJ+SG/9CfsFOyS7Zbsle6T7As5EHJT6E7ZDWCk5eluniTD0LDbpqi0Aqi3Mrolu2znHVbCF+x1dAVbd+zsCw2eHdbFVDHt3g/90ISFYvRbaFaRXXJEDdpr8PGqY640RzipjlZefd0tf3ehQeqdMFoSTBADAIns9OeAQ6cXdu24C5dOZSrWWvaJcktsnM2Vr8W6C4dwQ3NF8YYasZYzbg/Id//aeUj9rJFbOLeaHdcet54wHLecsiiz/Xf9BTskuzi/YIfgu592/NWXfdldgtfZFbAncHfI3pBy4dP0roHL6z6CFQVULjhKA0o3GXcNcX8htTuGVF8RGosOIlpN0o43xHT/HR1FxiKjUF/KDt6baM4gR9jfOMM6uyxcdcKdnGfaJ3qnWegwyPUX8/3Cr6Oovu6Wv7vQIPVO2LoOTAdkMrNeEhxycVFXcrc087Cp2w1CSqgecOgZKXDdjeKECzUwRZ1WaFEUWxjKGnbec9R635TDOUdzb9W88EnjbY4zjjPEeeI8cJWL8m+wP2IbZ6tgG3er5Ef99q3Sh2Ss0f7yT7kwFTd++0/cJnjlV9kbuUe5ibOZ+wavb6a+zERlZNw1FF//kM/Yvr1TFR39W8wUM2K2j4+b4lbM+oEuyy6qCb0wrj3oQf/w+MgoUHfvHTnSiv6v+CErYxX+3RHkCqqOjTx1f/M3tiAtxx2Wf92N6l/vhCFE14BZQiqzw4tA5WGjYr/VpeMulL9jLEte0wE3OoaRS/V1WHeh9AAneYtmC4uB/SpaSyqCIrGBzRveyKj4H7/NetJxyvDPT1r+1x+/X8JDapwlvtVPPu95pYdxiXx/oR920l8je2j/zp3l3h1hLWwih5GDnAFftj0j2Z9nollIZmbQgifNJth5t7ALL3QIVaReT8oZrJuMO6zu0O9CA9Q7oR8LSITADiCVGXUz2z4AHDq9oAu5W6gSn3b1LKOUwm2Ksmh6TH93oUOQhIqGbw0WWkluC6MVwLoyeMu0SHO0VwFPTnCoR4urwAnD7z+p/ce71V7vNHmW/LtnyJ/30ncf9h8/76rzPPjnHvrQh736w+Lrv8GfeyiX1veTo3DHws6dZsyMzKSb3WXQlJX6Wxvz0O/9UBMr0OSQXuiS/sYVObf7jjssf3ehIeqdsHUN2BZGAbL57CEXF3fpuAsllBXN5kmW2j919tdk3YVDITnBUpTSKHVhpS5KLXbteqd4CzJ4jYIK2i+mhkVlFEFFtTPFtCuKoZ02RzEsKt/izyVgcShmtQ+6nLj3IVe/d9K5d8KVQAm/O9cl/dKOUsno6w+OOofOqyJuZqKZ0R17zdB5ZsJO+GLnvcxMZoYzU+cVNs9xh+Vfd6MGqHdCXzqfh5kvAYdcWtiF3K2l/70sh8pIzh8ElS4v09XO9Pu7C0k+CUFlEVipGfOgwVqUxSrzmoZvQWoNOnOT1YW3Pmr1hqesGGW0qfERLTBcpdlcaxmtjL75j7sG1XW37u1fd6OGKHf36JpgJkhmZr8sKN/rVOy3O5+75ZTxmje/r7ncqCFlJJkg+bsLnSHIENouMDRIjLVgC0NQ8IYPrr2iPSp4kthyy8lVFNRbOO6rhqMitFNMRefN7gTmXYP6ulv+7kL9y939yrE68RowW0hmNr6N7R9UAbD/2aWdz936AGltNXLOGJlb0dOY5Tv/d4HdhVNxTIdiaKzqrQQGsM0tPENeY8tBSmegCGhuTnIBU8C0LAutgKEYTLQzmt8JzrsG/N2FkhvazN31qHfCyLJge7ExIJktewM44MzyzuduLc91K521IiM5o+zmu6xc8ncXdiVYSzP6Y5QWBBhqMJVJnSCqQm6a2zUJk1q0qQD1MUiyQVeREQuSlte76bhrSJCEvItlwMgZZYr5nSUwMACjKN4rNujp68mj/n1nVdhdmMZH7o4Z3eudMLoElJmQzcx7XXDQhcV/1uncrak87JquJhU3bxnxiUS+BusuZFCHsHuELSw8uzUUSwUVRRb8y7CYX7NOg9pmFsNSYFoDS1cLRlAuhe8b+p3fvGvoDuNuVP9yd0+gyKqDeUI6830/SmMzW7Q8u9O5Wy2ZpfLonC0LK1Koir4G6y4Ekg+FVCQV1MBCsxStOZMERZg6U6bVtQvHJlS8ZU05UJoMlUmJ5jrj2LGMq4guS/Ybdw3+7kL9y929bVvJDhSDbL4GBl3FjOeB/U4v73TuVh++lSGz9U919SA3TwH5uwt9CKPhIHpZlFrQWhRRFMNTbrJYxZJD0Mvrg+pzi4JSvXmyoAaL9eo/IbxKEfVGqbFRLpt513DV7jvuGrpBvwv1L3f3yCIwAwYB0tmd3hTsM7mq07lbWiUbycvIaow35qujMjLL311IWGvCNbzSWTu1QqMwdVJMwGl4sFlQkEBHCrPWonhVSvPRommNWBBt3ih3gvOuwd9dqH+5u0fmBDsJ5DO7viOYvzinNqycl+VukTYaSLuB5PyQHJWFlWQUVJK6LezOmbsFUl5lSj19wm+Jofy+szbLuluxb9K65WBXIaEZ9yib3gFJad+pVeeduVvmNAgy19gihnrDFEqLgSlb/DYUkDs77paRMwpGfwkM4QcYwgWXEJ+X6Mlv1nW3In6PzaYwDpDQ7vousM/kyu4hd8s0NofrKRiLZQqyyM1pWWkZBdH+0nK3rux5N5od6m6F/x7YFZDR7PaOYP8zK9py383kbgWHilgZREE0N/xakxhUpF2gQyuOGujlz90yKPXnixUMSgjfFPPOlUv9OQzEcxfLZJe6W/FnIv4M7OaQ0sx+hQFXQEs3PvjCku4rd8tbpHmQTVjIpI66cElZEVo0G0rDYosGtGJQ2hBes1iukHmHle/JXnW3Iv5m/HvypbNBSvPWqcGvPby+m8zdwpMok2WSrIMbU93BKUoDliyZKKjNry9LNx53WFmy7lb4r4A3HQBIaff6CHjt0XUJp246dwuDMj3Mi1YwZoyrj/V69xl3o1m67tZ4u2G/BfYC5DS7vccXUxeNHTa9sCfK3bJLPO9GPwiquxX5D+LelBLYDSQ1Q69R2evAaw1vWAfN3Qr9jVAGQwWS2r0/Erz2yLqkbJ0zd+ubwn8N7C2Q1ez+Pj9KVa1+xMyCdc7crY/HviaWye4grRl5g8peE7zq8S3rnLlbYT8Hpl+PjxRIa8/yBfAagxvjuVvHzN2K34T+WpjnlueR1+zxvt6ahkb5gDMr1jFzt8L/kri3xCZXs6ynJTZDriEVDvFqxzevY+Zuhf4MmGk9ZZ9rkNpnX2d0XSQprVPmbsV94K1g7lueQ2bzhsJawA7JP3n9pgVijCZikZhmB3fL311YPqgU5XEV+030sBRcKqsCFc6Q84ItVQftUFZQElu5u4+Q5zck7nLsXNOlKJk6fm8XSWqzFLwNgEeu323tQkoLC+3CwkKKs4G7ZQzLXaiVtgMRu0hnNWIry9mlli95ZVoi77XPS5XReNlGJNZydz+/AXGX0+c2no7gF94Kqe0XEeBZ7aMX9fuQNhKb89GRNlW+u1Vhd2EwRQig5fSg9Slf7pvqKZo5vpy7REcKLP/YFnc5tAZBZKMIdysht7mHcEcAj1q/S+IU7tZCJCVi5btb/u7ClUYVqhkkOSVptXxdewvlbJQkqXajQXHdioZqOq5KBMtdOFfkxQjkGt+kuMtpPBPD+adIBYD03j169a6/N9HSssAERQKbDdytCrsL0ydbGde9l+auHr+ilCDFtYNw0xSvDK0cvR5qRrHfjHUXnvHzv2Pf3Z/fhLjLSUoNZ2P5vYe3F342lw573q99RQQSJpDirOBu+bsLu6UlJLIpdzzyvxrlbIVMOoWWSzn96boLtTprStS08S93oUtejRzX6ZzujXrZs8+ve9zltKyU4pHn+meTpDebwBsL8B7LD4yKBqIQiTHBQuW7W/7uwqFAhfL9Ut1Yi52Ru8k1dhq+UgdhN6Z/02vK1COXtIx/uQu9monO5zcv7nLqJ2LYTRoFSG9/FwDv1bzmEtlLgoYZiFnlu1v+7sJylVxK/Co6NXXRGJp8L4q4EWRJeZH3U6VdjZVskh/L4i4nFvvmhRJcFPnN6wqnAfbCeOTy3S2WiGYx0aZZwN3ydxcumVLAY4uLSn+rdEqlRKjFsXo55yWuHrEJoaJokVjL3f359Y+7nLrTSYETPztPkuDo7yLAw1fv3SNmnOx9YSFFS22qfHerxu7CxaVGO/PYSMlU4/f1thNSUrQy3VrJyWhmEZdzoJXIy939/PrGXU5BQcOpGO5JUgDSe/BfyLZh19nN62jcUmdtWohY5btb/u5CtypZzWIXhJL5RL8MkMZroqbI8rMU0kNze+aVb8C6C5/f0LjLaZqP4g3PW8nv0QAbwFsK8C6nH24Ut0gEFirf3fJ3F47AYisOKl1F3lZXw9dVM/tBraZ3pUS2yLm7FlqWJONf7sJQWTTtwTUk5fmNiLuc2vEUziBdHSnu7w7gWc2j5w13A2YLEcAq392qsLtQFmm6x10Y7e4od1dEtUO71EFrknvVvh41CeXipR+r4i4nehBG1ovwd8hx7i3cE8C7nHyEBMkWUpwV3C1/d+HqIbJkQl0UEuvGKuo1WY9Caq1tsE/RkOUsn8deTjTl7n7KZ0vT3bTjbPq6fRrpdpdTO5rBG06XkOT+3hF4wuqtV8QJrJFJKS5UvrtV4dyxoggHn/+3S1QPRVpDWMWni0VytyRS7pQdRwmlRFru7qOrmg716xp3ObG2b7wQwX06Ict5C7AVsFushy/fFxcQAFuwine3jKDcsdauJSxVLI/UHrox4LGIkK6CWAqvlQo3jyxl1JRPh0Rc7u7n1znucuqm0mTh+LR/lub8ot9dgHc//cBOsQ/xuFvxwtVNJnCv0r8gzf2dwHLA9mHisct3HOJxtxrOJvGW50vvUUKe86N/JwEetvz4HpiHdNytpKNmOIN7kEYAEt3fR/jZXNQfeOrqDYd03K3GmbgtCLn+fUnIdE4Bbw3goSefPKTjblWPZPAlH4pU9w+IwPntPe/bvuoQjrvVtFyK7hbg/p2Q65wF3lCABx19+hCOu1V1cgy+bywg2f2DATy3efiZ68cO2bhbTRtRS6kEV0S2cx/hdQB8y6PPHbJxtyqPj8HlZkhId//wCDyneeRZ60cP0bhbzRtRy2YJHtQJ+c59wWsL8C2PP3eIxt16V5gr/TsS3j8MwLPXjz6jeeKQjLv1Ac2bEZyOjOf+wo3wTQ++dEjG3VpzpAqXmSkh5f2jBTinvf/s09cfgnG3GuaTyHYBHlJCznMv8KYCfLPDL0yIOOTibuWPOVaBPaRpgKT3jwLKS7uZJyzffsjF3aq/kEarBdRfIe3dD2lkP35f5K4vR9+dKvA3VBHUzKEKrhto6gQ1HFUcSOvu1uekyd0CG235AZzhL17sd9OI4DTkPYND4wBz3fO+dc4Y5/CgauIwFVUj4E3p+Toa8dfSv7ulczqXsylypotkxV4+6s0h/PtNJT4cjnSyzL9nu/uj0XhVNcycmToUr6YKqNkxCtK/u3VJdclLogFKXx0WXWn8/b8i8wnGCQFmvutTx/V3M/UCGjBFTMEBQWHMhQosjqV/d8vROa20Rve7+sbIl4Zwvd8VMbqITivoRPxsmAPPzucm9WVuMP5sGEt4g0UuQqUuFLEAB2MBWiYOcNUOp92uhqklh86KE8MTscjOc++73qHaDVB6WqGnwQxNtBdmv6bp391Sn4kNWjP6rWGBB7/7IwgWCaJ5tFFpt4JWyO9cAGx83zo8aLi4zDjTNH/dg5k2CZWOrdfQBUzLaJp4jGxDV6NZu+4yq2/SxT1COBeks6QfHmDK279a5nFWTQPgnMepouoAQL071sBGA9yt1ObrNHrgbdeGPX4JvubvxQq/28m9K6y+MVuKROqkWVl1LPU6oBMbS7aAN6t0prYkD2CHhom3up3S3BWXny4XAFHXyU3orWiNQYAXnfUtKD8BaqZmYB5DXXK3Nkgk/btbGmwNpMb8+c0QKTZpa1oHrz+yDExUTr5Ne/PeM/UileKktXULVrYDWH3qRHHzN6/GiUeh5d0O2bw5ZFFEd8VhAZa4nd+o2G0kEzB04ACXuABD3LGejfTvbn2m1qHWetgjl/rfeh0+EaFi/bCWERI739SkITwXk8R1Ov6xlU2ddgBYqAMXr5ekytXmrwpZIDEz6iyrLmLSNvHTxs1bv78DgJntW2tITvG4qIEi/aU3zgzwglN+mkC4haKqKKg3zFAMQ/2TYQTgbuWUnSNX5NuoV4fwEZcTsTGDw+0+Y/MHQBe0rN0pbQAMj7dHemqGFMiJlaVFIHqCKhu1xTlNE08QxxZeB0Atb3RspPQC9FkcE5KZTLn+PBN+NVWD4BIrTh1mCkFRg/Tvbtla60IHpS8Oiy7PeZPvRMCoYXafJE7wtIWbt10DqKJ7t8XftJ8x/K3VXQvWkg5yd1Qj5s3fvmiZ+DX/YZMC4GB2nW0wO3RbvL1hgDPC/5/rPMPE4X4CTFG8oQKq3hoNTf/uFpdU6P7XjYY/eQk+564ixpzplG49NdkdsfkAsPesIVKaztDN2xS2QEFFjWVNv4+GicfAEdXTMgQwKLTblBNCx0Wz0NULPP/kn0WdmXlMAcyhKObNEeNogLtlo1Xpq0Ooha9AwKjh6tkp3gW8zPL9A8msSePD0hJFS/M7OgeYWWNl4+O6iCPyIgZAQc2zB4tyUEWcq1XiSeKokjCNT81M6kPPSbv9T2AR7+KagP3dAE8VFDVjEpcSUJwLv8avpX93i69T9tAHrvS/+Tq8GASihZech1cFMS5KOZF5m7fDkkzNTIlKL0m/CRgWNDNTTcDRdWf0APpV/LudI13iuPA2jp6iUeLrW8trAIMDOm+CS6o4txR4rjG/TyLdpA0UXoOq1OyI4dUfs6jp391ybF08kI98/iIcbojXmJmJ1IkcnL9+nWRO1thQWuzQ5NSKKidrTmqoBPB9qIxlrbAJnMy0bFdZvxol7jcOKb8A1azdZtN7E9wlkiNW6MDG5x73e/J99SaoWuKN9aAOLX6N9O9u0XfJUS+cL/SNOLy0gfh5+e03ak6y18JQXno5TQibOW10wAYyknqj7sgcMCtjgxLutEn8IQvWb9IGmNj2nO3z0X2uM3DPOOBk6eGlnufAeQPFxAW05j0VONK/u1Xo+LqBt14bfN9VeAUjAj0EnxX2S6B02QgHpFLUZ6K7vvaCfldZvQA3eY/dz+enx4wylHqMbMHqAwwNDRdHF06bxE/vCpoARoX5aOjAeFQ2m1uA5xzzZwXWCMbdUiOfuwirYT/oEa5rGHfq4FqXXv3kSNdASdVezevbms3Tpos4VaiG5pOrZY0QV01LrdnOQfKQMuj4bqc0JxkW2TMLLWNF1VPgo2YnQdLTJGdj3voVmnFMikMXxp0igMmU688atm0E426NfHxYdHkOL+lBD0CjcaXNN2KpewZRhWbtuNrD5fvzjAmanLhTCh2uhZu3NDXbxOj6MqUNdvD2TdikVvYHzT7VJC01aUcUX+CXXRR/kNPEBiVoSZ7lxvShzh4ekQmcIj+0gHNlxOJu9b9xNOS+q7AP1EAPwLphR5arsocqA1jpe94JzRS3SmZiTLzJUU5CsWXEoduvfwzmTpEhIddfhU2Amdpv/vkqNBQH8/NvDmqF8VGw49IHX02s7R8kk1LoxPjd3X3Ac4z+c8TibpU+N4Q6+C66f9YMlleBOnVS2jaNFtVPqs2rhRif7N9tmEzx6OZp6AIH8847b6Zukh1X1WkHlHef3IgAWlrRCOnARMxNr0+r5U7nyutXUi3mI0lCIGT7nRh4gYvt62yErvu6ewwwlbZ6qnrXCMXdyhddafByBt0/pyvHlAAHV8fuPz5tTUtqKuqhCZJki/KSLmDPOSsm8LDS1eZ36OYjTR7p1nHXWXYxc8jiu/5pXJTFB/DS42sNA2C3uZGijGhz1nbO6AOwsc3O+lW0dL3Di6/UxtTHACVt7sMiqZegxThVaR53peUHAOpE4xIjZGak3+zo5DF5wImSo/OcZyMSd6twgDVTNTjAqITunza/hdsXzMS01ITEOaxTj/RY9+jQGwUtljS9eJhIZcIn1uJ+4GJmpQ2TIEm0Gev6nTGQN2d3MoMDg3hesaitxVjfidmA4ZE9skOtpz0l6Gox29DVbifcrcjPSs6JoaU4bsH2mwOX2NQEaDVrMhM16lZ2+2hA1KodU6hh/tBN6bevh2eyZwA4LXzb341E3K3GUtKwcZgGeD2D7p973LNt7CZ7TW+wHNCiDvDSeyOCM4cABgio87pFxcDJHTD/VOMBQMBZ3q2pvzSezdxn8X2RWuv6XebglW/UyvvNPoNEoKmVdZ06YE6S1Z92aTerBKf2NQ2lSCZoHZJ/zzIGcvrt634JwETSzVNVu0Yg7lY8DcqnThXoF17V6BH6i+yFy+rqw0eakGph1QmIhBIJdQGVbgxvPmjxemlKd+ZWdPOrS8EjHDD9+0jUiruUboPdpF40MjRKnJbO0h1WfKUiOENEaKYDzFt+BNJUIzZU3I0SZJ/jH2vWhMqmMddRhcfbIGGjq4/H5wsrvE4v5l8Ycbhb/1Q+Xo8nuzlY6hn+h+B5o+Lm4nHyR74zMatmYEKy6fEpJ7LRbFW7wHgKymPizUiz+SPDUR/YZdKdNNMFST9n5Walh3YUSgsODf37AE5s1rF423cDhJ0V7XTcWc4pcmc3cKOQHR3YOMJwt9bXLmdNuweJGYdJ9CS2qFCyyQzAwuYjp9Le2f3oaYPJcVYsVSpnmq1r8usSnsDNzJ6o54F6Y2P7zD/E8AnpC8Ie3KY7HwCszK5Tw3haWdkUNAEz4pxQGkW4Thnw00ufSQQm+szZSaNkIPDiRXBH5G+bBnBKVwQI3HK/RKACa/3gvSMMdyvaCNecPQXTDXoU/hKw0jz0RE0jSR27itpE09sUJoh2u4DpWnbij7yCA4JMkD2yn0D/v7qb2Ej2Me+4+NSQtNGiO7T8AQYExkSR2qmDFTXqww0mvyOoIvaffP5IIZOHbzJbtCWpcrdRT+C4Vs+js4U5TrMVvqdHFO5Wgdyq0bPJ/BcGS/cv0eNsvrZPYFx+/RWXMxJ3eP0N2w0z5hOrZfloFqTt04o/Ib4GTl24Ayb/q2ihCy1cf86Fm8xN75zUwuCQ7Qs2OCh3EHyJ0gRDeAu2b5sBsFGFwHllPZtagONFx2eyFkcQ7laRT8WZWmu8l7jxwNII6FEIe1dcfZXWbLN7kGSAKBOK6/utauryADARwwJTMl68lLfwDs9fOzZnInNtI4xnXBuxTqAWPvJagI/U7rZBT2aDecRmEKcr379g8/14sLJBibkEHilFLuOijq8nadcQOR+dy2ELsFG5ewThbjWUk7q1owRngSlAj8KPAgxgp3SXlHKdlAGdzpJ6So/sbxsRmhpdioZSqzqrG9jY9p7cb2euZfuCzRv3kwwL2nNKAy+93OYH4PVL80gRmxSp6S3YIChig9Q3puDmQxJxIXQ+PAOYQLh5svzQiMHdamsHq6fOFPAz28I9Aj0LzUOKawq3sj7fjtSLeYeU3w6dchpVdKOCm5p4k4JGu0XbdlA+YPaXzMXy1rp2EhfzbjuvBq6qZo/LzM2sNADunYKLEnxYPEXsXnB9vgaY6zxbxLs0QnC3CpxWjLYT2S76GQ8qvVUPQ5MGuMQchKjFytDyVY8spZgAMzEu0SvbuP7oolLCBqOjdsnKoNP1jskD4D0Ovw4o8yrbzlXDhkG5flq34VwkAIj1ELvd+WAbgNOTnRUmtDgCPSQaLQ4jFN0EdHYUI9L0w7N3VTxTcBj8uFvgqC4CCmGUGjrvdH48zVYuEtgmnB+Bg4UUW33JCjOEcVc8eDOzpgW/A2BgYErCx31Os9lXNihXRdYYYWLUP3l451RBEdza1smt7WDne+f5XztZBv05gg6LzLND77X7bzHVg2BXWf8jmZA2OU585VcofyEIw1LYJp4vAYidH0BuhjuH1THRiEWGLRZGKDy3aJHoYGKm3rWl7ytEbSUMhtytE3qihGkm0IIunlgsP2Xdrg83f4DAwUYb+xSXxQbyf6ta3jt5PDBzYkIYACFvVeu08VG4P2invKxvCpq2AxZi3513AI0MctMAQJObyjaU8r6xmIwdZTRzL0mQqvDYzQUOEoKHfwCAMaZ3ChsxAtEsU6Bm81DAaENLS83ZMzEDEeLgx93qFnMHqgAdtQQNXbtmJxxRwAdE/KCjL1LkdxNuof2i6lZbOe/IeIApE1PDU9hbe0Vj0wBSPIq21+SGisikKJA/XLVZhlvMTCVcQMSWQtglcNIQPa8C5xJYo72trkWKMCKiTT050k7+XU8ACCZVOitt30vxYY+LwuDH3Wr1hP5wFNVwQlUVObG4chwvTRWcK3wOBxsFXVdZf4Gb+MREbeNJaumdo9YU9/Lz4PMeByw+ism1GKsaTSNFnzk3bYQ4VDCaVCW2DeEpCzoCK2kzLXdl9vlorRrwGa1udTTlvawFXkYAvzzJfwI2m84a45oRrZh5VMxxKxi1JUYl5+zQWG3dBj/u1qLgGIVFDIQT2i1J02VVCpcKFwAOTumtLT5RwD+Sb0GlL1rowVdmf/iux50G3iToxgtS7e/8N83j5IYGzck4CdT47COLAb93tzS2S3XhAwDGJyRxkkHSi1LaLki6U6kHAEOG+ocPjwh1Ek8dhqLT1AQjQoif54jYBeDUpLqUEuIIRJsD1u2lgFqYHAoJGSb96Etz6DODwY+7FTjB4okORbVDye241atmEfy0cwZx8Pl1ThDCqwUOFCEK2yQeklDE7//1SNUxnfHeLvLgK7qM5v1bWoyA6afa/XOPW9/6Q29BBmJdByV/cEqbYKw82cUfmUOy7+JN4x9rBUEMH5XuLUi6RBlLfJS8n90BNPQXx71RQTts/uqV2NnqJQTQ5xLg9n6raVYqpZDxDjCzolDIxbGY8ZLSIMjdQkOHApz4aPTEIqs3I+C5AgcfnaGETJKBcrJX5Lrc/kf+nN6aruP+efe0t/K36BE2gQSORtWXDuYUnK52bJ7EQftiUTntTP2WIGCllN4qL81w4g7iGVJp1bjzKBSsbcpJxiWeIILsBueQfR2c6isM2zyZsdz1tKmAhZYcY6anE0RbI5gNgNwtdFFhURWHgK5aRCMKOEe49eCjJPHtAGXZLOFD0m7wtFW1lY1B73D8P+92fzcYcSyt1u53bfmu0kuqAZTnTjKDTNSLhtP7QsCFqfI1goCR6cRnJs3Lf6RK0svbrR+IT7Jy1eMqp/eEcvm9CKFXgQsArFDRRtsjSg8AxYuZE1MFEPDGmOh1aHUg4m5t6GLu1olFP8GJgLGoLGpYUchxn8EFwudw8NG6biuqJB6eHYmebSE+A1jfdWS1Ky0/Eefsx4/CN8Ysbjq0+Fk7bHx4FgREoVXdDi1/hLamU9LUPZHZhVrMzlAd1wwAulwL1u/k1K08rCekLUla2xF8lt+oZWU2cQcxJ7mjqudcyC2rWt4/Y4OrIUGcLGA6stCsCHV1dpvShd+Bi8B2AGu1u1a5kWhA12IWRgUwiUjTD7qCtjgpDH7cLVfoQFEUFpfk6b7et4OLBA4+arEO274p6tKc4xGTGn59RuMQYB5vxKgjZu4brLQaPhct5nVYl1++ANz2h6fER9pO1Tut69ejrsss35xSU9TlVZgpF/FsCzU5XT27dP6vC/7E9Z2WgaDKdXj5z6qukVFuLKOJj5D+8ZhqO4B1ddj5fKSId9nVV2zB5hV2n/lx9GJcCHYA2GCd5SYSCyF6KZkwCsyiJXJs+tGNUMQOrxBt8ONu0S2iekIBxceTbNkohR3gQoGDkNY3t0OsLIosJieWbJMl8FhLYKTs7BkTr1Gd+O5l7quwn7ZH2HVKzfvWDupaRqkzeWrQgrCNNJwy+H9kEbdWN6rFMpz4yECT3XcJRSCi5mRtQX52TGRmmgWgH+NFBDjJNsaZttQKExBWogHD1lodUjJ9C5jQWRoOftytEwFdzKDADx9X2co64mD1/wUa9ZA8YVBAbhhvTW9lN+m2jZuZGDcmZMz/rJPaYI2qT241XggI7HzDg0bIBopMAAUWIO6L+CJA1e48VkxtKlY4IKOJ36Z42vg0KGep2y5LwscbFRoRcULoyvhewBbXGhUcd8oIdOdDnGjS8EMwH6GIrm07GHK3GKWurg2/FJbXEniRwEFJ+81eAFB6XZvJkSDMr35Dzs89/6fPwZjDiwfEcWFbCPaaiPMEJ+YkOdiqyVVS5HSj99/9i0RhN6IpUWQsxgSlzCeziVfOvsyALuIXtRf3s1E/56ScjANCb8YucAEANpmu1VjooKRYsWFo1Qq0IEHFq8WBkLsVGrVaQJeXkn09/DQOkqEGj80jss/R+Lka+jWuBZcTGIdab/tOh1mubkxAg9VMh+VcHPOWMITBj7tFyXCCTmFZoUa1hsvBJzJnE64B14iApUquNX1ipSd6gmGE2PCjtEELQiUOgNyt7ofrYgcoy1I1ZjX8M38PczjhSnAtgeUqXqnDAZq7tcSnY0kGf/UnMacTtpEfBMtUspRyYOZu/XfjNoMftA0wxxMuA3sALFPxEqUGZO7WmMnGEg1HLxOY8wmfBCxX4RLKgZi7Na6zcZc1f8pzQ3GFCseYDsDcrRHNEpfOFV1gOwE+6sMHXu7WqOK/a/yE54a0F1wtAviuYcDlbvWjRgN/183MFcUdBBinGhM92HK3xrQGfvGc0QXYDYBxpSYUAyx36+N+e/NnO4ekm/eIAAZY7tYvAPjQm+eUhN8K7IblAyp3q8BpYhDArQ5zTBFgj+Q+ciDlbvlLp+YCzDldQMcBsFeMvTQGUO5WsnBLJ+fW7Z6EcbIIc1Rxl+T3RmPg5G7F82Dx+Pz6/ZOZqhX0FwHXxaE9sAZM7lY8CxaOLGisHoefNEd1AV1GgB3D0E7kBkruVqxXnD+4uDk8AmXGnNUFeocKoNUV21wY2kE+sLvT3C0TsN09E2CUAWMokKFcHMcBHDueE88F/FgvzGHF4QC0ukKkiNLmbnm+FpbcLb2+Q51ZlFGAQtnq1l7OMxqtQcX7lsgATsxorcAwACIqNRaZaOVugY9njIdDocuxjXKUZdeaKJbJ8nHMeDkCeuH6dfmYJXdLd5u5W4l/u8tBt1+mPGVQOQW20Vo5bR0SOdD7HmTAHA1vBXH52qwqFrlbOuyzO5G7ZSvrxAvlKgMBwa0NYAeACh3PRNuWLIC3Gg1kxCwVgwDcyn4zjheU3C3dF+p0uVt6feiHgKdQJkDZOeWZXOChP68lBrjlTciQeeIQAI5Jm99mzd0yRgxyt+yQ0O587tatMYCxHTylbKU08YzmhoBLn0jGzEvfBKjJak1F4irHxxOh3C3jGKPI/SiKwLEDJ4wlRFsAN7k0ZNCWzQ2gMc9qswpBqAUmd8sOWW95w6/sGt94XNnzjFE5o7xoW9cANjdl1FYYANsIoKWIyns9hwDjCU7ulnbVlTW3xlO3tpUN6KaQWB/g2l9Kps1t4a0grmBZMhknEIPcLbvLuVsOBoVxcDxl/1xD1dofclsgA+cWcCKwqjdozmLf6O4vdyvxb3c5htQVwa1Rt8aJ9dUQCDhxSyAj5+ZiMwCq+/XKvGEEKHfL0fjKM+0XtzSINADedDNBhs732B6A+ry8rDPVDeZuJf7tLsegjeLWClVfsWjigDu+Bxk7P3KSKAb4wUWdOVEXdXu5W4l/u8tx8MF4xHJXs6/UfVz/Sz+STJ4TRSkAK5K5NWlXWHK39Hq3T4UhRc6MAS/StIa6A0rhI8nwuTVsJ4DqtLuks0SIcrfqDtTSBPiLdyLj53tMA6DVRUe21kWKRHhyt2IplduK5w6YBu9BBtDrz4ARErC0u6g8nRSc3K3G2NVWBYwQN74+mUEnSGPM2m+1oLU6jhOY3K0CR/WOWloOGGOaIMgYuhHMlXohoeDQxtbatC0suVuRltaUXdIJeueKi5NBtHeOdHFgRXfegs5KQcndWrXRqK8JuPgc0Utm0TFwNwBEXHJwvKMxrwhI7lZrEh42Prlsvg38+/nJOHri7tLvAYs6y+e3VwlH7lZ5qXbQ4KyG4BD83u7iRDKR7gCTAGjMavuH+xuymlDkbkWTwmHjU0tmuvH8VZgEb0uG0k2kSwwA4COPaq0ViNytVZv1Awdnvz186YOITQQZS9Wu0lQAmoqxfaID1VlHEHK3mtulQ8Zmls51EvkrMBMeT8wGMpl+4RmlWwIfeWC4JyEvALlbSceShc5Bw7Mao4Nwy4cQDy5OJLOp2kWaDsCt9gkPLu/O7/Fzt2pryf6Dc6+TdK/AHHhc8bGKjKebwzmcGwnAymTO64aHW7Jyj5671ZoGR56bOOz0dLT7Blz9ERwPLIYBGVF3hksASdz+4b4DGrsSuB47dyspLVtp7Tc4t7pyFDi7eGwxGciU+h7ngO0AaMorr1k/dXR3YQ+du1VTy/Ybmrd8tZ2aPPGbjwl3BwOBDKoxODjsEcIBo6d/4JOFH33N6da/YE5Tn8rdismyGhmJKm7JpDVBYqi5SIg1a9OZXEMRCyXXEJNJRHKFXLqaKV11EwTrSl7McTFn425Jam5JFCNop7c0e96Nqg59N6ryWZW+70bb6+hK343qrJvF9fE9h7BQ5uEBLV2WLOS1NQMGwd2K6YJMq77YITQIgPX8b86H3579kXds57/xaBQ5JdTABAXiFRPINZSMxLRXGQhgoeY+i1EyArfgNVSvwdT397wbHaXO6d0tmgGlxlbAkliyoJ0+3sF5N2rW2nejpvN9N2oUSoPiR714ZksX85UbBrCHOKv4FzKwnhFqoWcA7rjgY6/PcPVJ30j0es+7UXWxPpuApeb4J1PGQJMogepTNvOmO+9Gu4ZfEmsGxGtedJu3GeBuxeaKLQs2FtFZ9nawFg3wdRf7bjSXDwMgDFzfpO27UZWm70Yd7TkBECTFik0uFM8FjBf3CBsDmVljcVyoHwIAjH/nD19k68l7lnN91ilDDYJXxAglS8kIlvtGU/FKXqgWDMGkbfghhdxoIVHyiVt88Yadd6MZuFtT7QzajZUxyEoZL2bejapzT9+NktNKOYqKHVs4Z5EuwCi4F5ghyNwaiv3CQSESwB3z9S+y/eSd8jVAb+B5N5oMIeYaqLnRzEhmoeSSsqkLRu3MNFesq931nXeji07NM8HdImjxOHvejY53aN6NKj/ADUKdzSvLM3raD3Czbi7vm0723ajG8YxXdWBHTqsuABgAdy/OLK5PRtdh2GloAIB7lHNfZPup00PZUa/BLFkwNZhMNUcECxVuOVbJtTmiZTXBK1nNpc/7d96NhltO5PTuVrSxVArNx2IMl2TejWrfpOm7UZXHVx0qylneTwGhD+17y/st69iKvzpq2qoqBrAX3JO4NBlfu4edw1MA0N6vuvH2W8+eEqpIlBQFIzNlToyagVvaf7cxOdVsLlEMsmaau6q1wyDXhlnDZQxsftKs0pVb0rtbEvQjl8XSHZl3o6YTfTdqLJ8XBbCUFKi19t2oCnyddcm65KgLOeKird4RwE5w32JTICPs+5CvQp4BgPa+9c2323zutLQyzXk3miyXlEu2hVtaIddGg1yCIYbERLMLR7D9O+9GO8FmgrvlbSjGeNHzbnQ4V/TdqOli343WhjrsolaUHcDn3r+YKMgY+wTy1cg5AGjvU996283nzwjlxiglXl0ziNUQ03+7IM2bIKVkbRrElGsMUnIlNw3yormUbvrzbnTSr8VJg/Tu1uSfj6HlI8g+0TFr3o1qrJ80IAyUb4cBYaCzrvV5f9/uszyA9cfYrItPEGKtw9fZ0M7WBNlh01MrSwIYBw8gZgmQPlwqMPVDJs3WuuTqF7WJ1MEzMd0ctE+A6BgesEgcWs3lftFBCEnilCy0hiQRCWsdrVjEHCXKB5sHItBqoj8MRO0FR83B739De8FymWmLkBAHLmlNzr3cP3yHAr/gY11x4ZdLBQTveDPPYhkBbZ3QI+uPBV+bvArgruXiWy9evvNotTFP1agMzSkqDIFcyX2WKEicYhBqYzy93vNutKve2MST5vEW1SS9u+W0qaPMgg2mggaBj5d23o3qvnxfnqxeW9+NlleqR8xOVexWAcaLB3W2qwDpw4C00bT1SngEVnuVmXfn3s1plATb/Rat1gDlVtfYk7Ow/6LBACH6zINnT1iBIP2+1U4L825kiWg0GJY6ntnnNTxH7nCzKTgqTI80YddjjAzgUSb9CgzMN8EL+pw4yhUsI+Jqpzvwy9z7ajBnQab9sPfyN8C2u1Rngb1fDqcPe836TOCKi9TFtlfU3gk99InHkq8Dnk8AzsyKb7l5+N71nTHJSmNDbprzbjQXaQxPjZr2FhAMJn1Ds4EJYJJPNCywaf1aNJcZ4G6VpbrasqjQokFpxFqaj5di3o3qLvbd6Ies2G4dMTtZXSsDTBAPAnuCQvow5tjhkGUK2Gj8zM+EaYPBMh63XGhjBgDSKxwMmAB0mWx5qn/IiksBlyJuBrhUvAJjkCaikaYO/05Z9UK+Xc9azpulVi5oqUouLsQTGMODgAfJtBm2XwJEZG684HmhQ7bWMQDfecRQdC9aO6HnPvE48vXIcwDAVt9408WJ155eXqaS2lhgiMGURpJpZMVo7KqOirbmWFg7m7JAfLHZROXIIk2/TtyS3t26Y/NudFlodtbX1g2Byve5ecfX/Lxee9+N5vLg4wN+oPzAjeV+yXrnqIWJhmYMMBlO31MokD/stmg64I4Ft0XqzQjStisnDH44YNhzucYZmQaDZA+/eeDUUNkv9tyre5z6Wp46lLDQAFhgBhSaAwBAlx/SxnKvhSyBE5eDg1e7x1KWwr+dM0xWFTohyY+zyTcETyMAK03w+rPzbzQ/tTFxcp9Nc3MqK7GXRtMsT077G4JNZzb9eTcapGQMKXkaM58R7lbDg2KjKwaWKEGx8SLm3ajuTN+NqjwhgZvVa+u70cZOacHS+MLVfls/AJgn7g/mCil0iubTt5Kr3WaPMwAX8j3lDwbHRtNWg2bUKrL3ZZuf9WxfEqZ0mxgs/z/YCAF0vC1rPPdrw81xH4WFRjqHHQ5hxTPFCzaMpXaDxxDCk0qee9QxJw3c/S8KmqAEJixlzzSbHrICXVOFThCBeC74huTR5GZgjOl96ltvvDh9h2KTGqw6yTDBmDJTJiU358QsFHJ1UZ/uvBudtKguMNXVxSMySp3Tu1u3N+9GkwS2ebiYeTeq19p3o9rP6k733eiaw8pRixPLt1pJCejdW/zfRJBFuQQHLsjNbc44kb5j62lKMcn48aD4f4P0gGm6FSW8E/jyqSp1VtuN/GgMDKXamG90ZIEHAAt8DwPMwVkRcIAbdCoHDm8AxTf/PjDVdOHQFJh514VhERgykXeCKJTa7bcA7wyuIQAnh+obLM6/1uTKchPJlE04H6GwdERzc/hLsdG912AIJU933o12ZUSMX0VedDEQn3og2Axwt7y5UsuME3A+XtS8Gy2UnT/n22G+D8sTerjk+8jnfJd8Lt+XhzBwLZeQdVtTv6TUm78yXhelAEPE3cK9w5YCJBHtxuD4i5ueuRJ+uvkP9lLwlznoUobFkqfeueOA/BsxG4XFOre2be2S977A4N/DLcSgRHnMHAs8ulwdkDngxVJba9h2cxoz8FHssOyplyJZPH4d9LHfXPEyALBMxQ+YXn/9xbnT053rOQ9Gc6PYELCGH9psWrLgRcjVF21EhEnpsEa2eiWT3t2aNe9Gk9xOO72Fleh0dag0fTdqmZIWqHR9N5rz88bHrw6zT1pS6sYzD/CF9+G4kEyaQ98pMGXNTmgzudS01aFtMX4QPFB57VmTaytnla8gi9/z1hDoawxabNb+G9l2VnvuzWBHgtcwY4FZJwilN8KC9lTeC3B/HTtBGMql4PHkgeRsAMBp6c5rzy8/YHptlQkPrNytaL/w1wvXBzVhBsBcuDexm+gFiYRvID+Bz+eCxTePzNYCBYjvqGN6W54Afd2/47Em4D4Le+EBTzup/cZovAwWGVm1VtqMJV+9AwCG6gSBiBeDh5J3Jp8EME51r3rutRZX71KujFEfKLlbcdzqg/rC9cHynVbCOYAT71bco9gGkEyOCDgSAOwTABzIwxMq/0niqQb0O3vgH2ECC/M9wdayrQU0m/54K0HCdoJQxA7wSPIQ8gwAwFo7uN/05v0n188odg6E3K3KoLK43FtS7kWSAgCf+zFnFAMAZBNuIDBIheiQGXfcD74HV5JQ8QAFzeQdpuUvJIdTt5EBNiRoJwhHvBC8M3k3chkAYItv3X96436zm1tD+8DG3aptpX+9uNy3zPFiNJxd3K3YDpBRZhO6WeBV/OXeR1oPCzdA1xH3ro52+hLv2P9Io6n+T7hYaMWWej7FcHMPMmH1Jub7wdqZo742NK5zumOw524hiaNPJseeCG4F4JS0eu/JnXtN5l8jbRyouFt1cbpkp3f0drsmKgNQArvC3YqdhaxK1Zp2l26T/iEPKWos4+kjzHo+0GfsOTK1KDt7/CqbeF7RqnG+TbLPEkPF6R8Cr+npT5OmTm0yzg8DWn1+o5XM+s1vQ5xiO/hx70HeFwDA1tC893Tu3z81qxx4uFuVcWXZdmfpdreumQLATDiruKPE+rJHJzclf3B8JtVWfYI7XcqA9OopxUpOg7fWWMWzlU0mJQMiAI2mHYYEKIagKwIHeQ5gmeei2DX0Ss+KwIcZFm8MizeFCvBw7nUpsFQRGpvgw8l7gikHxa13zt3Gy3evl+5UbS7R8sDB3Yo5v6raXL7XvnJztwSWlyaeBc4McuvfMLCFrt6peuAfyx3+25NzC4B3LLcICF+6+tYs5SWQ1nrqkXkAXKjrcF8Dwit1/cCYbv7Ehyz2HLrqE/YZfIYFNwtuvQC0GAbFk5bA+G2OLtB85fotRyBHBiGKF4Mf9xjwHAJMPpbPt77rZPku5dom3z0QcLfq28nKSmv5fntVpREvPABMFnvB3uITkV1OVQ9bHDH4YcsThy+K7H3ymGEzp+Q0XgZHlt5OIUhNQmCHQ4BJK+imwgHAPTids8jXQseR48Q9OviJ5/UFN+k0Ry26DRy4DIbnJlvxC3SLZU8FrLoTlvtseMI30Cfd6CTAL4lTUXT/uB/3TOAAsMl3z6rX71yv3aHaWqnD2czdimTh6kpzZaX54w3tBADUNLjjHT8UGeZDWowvGB5fDgA2utZ2pgaZ2ZttT9wEAJd2+Q0Gjmryb4cpsrkSEYAuzKy/E6SkW8QzQ5VDAFiy82TW3lZeGx+lPQImrAhUbANPIn/l08C3AoBR6tPyyh3KrduX22eW2yttPBu5W9E0LK83V9fq5dVGZVRJSgDwyfPgB3YRpYAsc9aNf2g6jPMNgDteNfuuW0bp8+mW28Nymqz5MFb48hLnOpIM+FJLlXzR9X0Wc3XnFN5LZpX7F2sdp8GnWcqA01Z4ATAGwUD0GStMfC+QAZKMLQbz3Xmv5HIZLLrZZRkU5qtukSlr13HvRb8I2fjL14HJS49xr0Xf7N1xaRffzO0KLZ2A8MSt70OeCL7T+WSKD/3Jef32ZfHMqnxGUV6fDGYTd6sxidcEtdX1ZnmtXhVX7I6vvpgHPzBL/AsyzayA2/rFTN37WENLMv/JGP8Yp99qkQCvBWDFc1GIlbda836YAqw+5bukreUp31O6384COBQAbKs0lzFRsInARJU7+c84d+8CQOGW2/rrXa6krRNEKS4GTyNPB08n2wBTwtrEPaMsn15VTq8rp46qy4x6xeduteZhZVypCBsVQW1NWP9VOlgKZaIM5olNAAmnbotgZf5WjDW+WrMHzlfuboELfwF5H/BZ7weuAEwJJzbnnVNG9ZPLxsll/b9flUSvqNytSL9QGdd+4pi4WhVVattlmw6OhB1glpgF44Xi2Bl+8PuChR/1MsI0Ya13txbtk4rWlqL9K7YWneUufkXibp2ud2jEQ8MdHvbQMIeHaUpi0riFmAYz4WPHCI7l4eXgRz1TeGbk2cL0hwKvTvxNWW9j7mzKexvz3gdvzPorXPRBy926rc7RhKNjHBnj6Fh/+ug4p6oyy7/zFDENpgl/FHAsEf3F4PmDeJ7wvEi+QrgeX5YauS6468JgnXfXB3dtcFf7YHUSrPLhaue3w8rO3TrrOlXdySona57MPJZyLOF44vGEv3LOyGx/9YliInzkBGMbUQgc68Qr9Al90Bd3/LVQ6JBP5mPtb73Y3nJsj2NzK7bH5ZY2tzTzOlaHVqvWq6+zmrVa/K9F+N/xJhY20xi/jcvENfElrhNXY89G9zr6xpg90eeJOV9F3VxFfngb+eFNxM3tN/9E5Ac3Ye/fE3Vzo0sBPuRH/pIPN1I/ybFa9MUADAqDMBAvesADEzr783KWnMiF/3tPbmQHo87EcHgHnzIMn3+RTxgXiGAYlhNc4Qb34gHPcqF7uJ4zGHUn0seNC4wjyog4Am9/bEgJi5ElIn44Eh+OLjExDinJKSmpqZZITbUq1tEWNvgH22IT7IpDcCyOeNLLHYNred7zrMAoV3EJ/7X/af/T/qf9T/uf9j/tf1Q9AAA=;" vertex="1" parent="7">
                    <mxGeometry x="680" y="110" width="339.29" height="190" as="geometry"/>
                </mxCell>
                <mxCell id="12" value="&lt;font style=&quot;font-size: 18px;&quot;&gt;&lt;b style=&quot;&quot;&gt;Volume is 30cm&lt;/b&gt;&lt;/font&gt;" style="text;html=1;align=center;verticalAlign=middle;resizable=0;points=[];autosize=1;strokeColor=none;fillColor=none;" vertex="1" parent="7">
                    <mxGeometry x="160" y="225" width="160" height="40" as="geometry"/>
                </mxCell>
            </root>
        </mxGraphModel>
    </diagram>
</mxfile>